<svg width="534" height="204" viewBox="0 0 534 204" fill="none" xmlns="http://www.w3.org/2000/svg">
    <path
        d="M4.40357 39.0911L7.63037 1.06725C7.64897 0.692367 7.8178 0.531705 8.19314 0.531705H14.3595C14.7349 0.531705 14.8878 0.692367 14.8692 1.06725L13.6639 15.6341C15.4213 12.6351 18.284 11.1355 22.4664 11.1355C28.4719 11.1355 32.7019 15.5806 32.0858 22.5963L30.6777 39.0911C30.6591 39.466 30.4902 39.6267 30.1149 39.6267H23.9485C23.5732 39.6267 23.4203 39.466 23.4389 39.0911L24.7057 24.3636C25.1057 19.5436 22.85 17.455 19.2574 17.455C16.201 17.455 13.3091 19.5436 12.9092 24.3636L11.6424 39.0911C11.6238 39.466 11.4549 39.6267 11.0796 39.6267H4.91321C4.53786 39.6267 4.38497 39.466 4.40357 39.0911ZM41.2084 22.9176H54.9889C54.4459 19.8114 52.0506 17.2943 48.5116 17.2943C45.0799 17.2943 42.2847 19.5972 41.2084 22.9176ZM59.2249 34.8068C56.5963 38.0736 51.9806 40.3229 46.6722 40.3229C38.0393 40.3229 32.7868 33.7892 33.4534 25.756C34.1201 17.7228 40.7767 11.082 49.1415 11.082C57.5064 11.082 62.6999 17.7228 62.0332 25.756C62.0014 26.3987 61.9132 27.0949 61.7178 27.7911C61.6482 28.1124 61.4231 28.3266 61.0478 28.3266H40.7256C41.2606 31.5935 43.5593 33.8963 47.2055 33.8963C50.101 33.8963 52.4757 32.5039 53.9655 30.5759C54.1959 30.2546 54.464 30.2546 54.7215 30.4688L59.1549 34.057C59.4124 34.2712 59.4527 34.539 59.2249 34.8068ZM62.7265 39.0911L65.02 12.3138C65.0386 11.9389 65.2074 11.7782 65.5828 11.7782H71.6419C72.0173 11.7782 72.1701 11.9389 72.1516 12.3138L71.869 15.8484C73.5781 12.7422 76.4997 11.1355 80.7893 11.1355C86.7948 11.1355 91.0248 15.5806 90.4087 22.5963L89.0006 39.0911C88.982 39.466 88.8131 39.6267 88.4378 39.6267H82.2714C81.8961 39.6267 81.7432 39.466 81.7618 39.0911L83.0286 24.3636C83.4286 19.5436 81.1729 17.455 77.5803 17.455C74.5239 17.455 71.632 19.5436 71.2321 24.3636L69.9653 39.0911C69.9467 39.466 69.7778 39.6267 69.4025 39.6267H63.2361C62.8608 39.6267 62.7079 39.466 62.7265 39.0911ZM105.202 39.6267H101.77C96.2471 39.6267 93.4791 37.0561 93.9938 31.0044L95.071 17.937H91.693C91.3176 17.937 91.1647 17.7763 91.1833 17.4015L91.6502 12.3138C91.6688 11.9389 91.8376 11.7782 92.213 11.7782H95.5911L96.0579 6.6905C96.0765 6.31562 96.2454 6.15496 96.6234 6.1014L102.822 5.45874C103.2 5.40519 103.353 5.56585 103.334 5.94074L102.83 11.7782H108.192C108.567 11.7782 108.72 11.9389 108.702 12.3138L108.235 17.4015C108.216 17.7763 108.047 17.937 107.672 17.937H102.31L101.251 30.6295C101.11 32.3968 101.874 33.2001 103.269 33.2001H105.735C106.11 33.2001 106.263 33.3608 106.245 33.7357L105.765 39.0911C105.746 39.466 105.577 39.6267 105.202 39.6267ZM114.065 25.756C113.694 29.9868 116.508 33.7892 121.119 33.7892C125.892 33.7892 129.236 30.1475 129.612 25.8096C129.988 21.4716 127.225 17.7228 122.452 17.7228C117.841 17.7228 114.441 21.4181 114.065 25.756ZM128.47 39.0911L128.83 35.0745C127.065 38.2343 124.388 40.3229 119.401 40.3229C111.733 40.3229 106.156 33.8428 106.823 25.8096C107.49 17.7763 114.197 11.1891 121.865 11.1891C126.691 11.1891 129.006 13.1706 130.251 16.1697L130.603 12.3138C130.622 11.9389 130.79 11.7782 131.166 11.7782H137.279C137.654 11.7782 137.807 11.9389 137.788 12.3138L135.495 39.0911C135.476 39.466 135.307 39.6267 134.932 39.6267H128.98C128.605 39.6267 128.452 39.466 128.47 39.0911ZM138.455 39.0911L140.749 12.3138C140.767 11.9389 140.936 11.7782 141.311 11.7782H147.478C147.853 11.7782 148.006 11.9389 147.987 12.3138L145.694 39.0911C145.675 39.466 145.506 39.6267 145.131 39.6267H138.965C138.589 39.6267 138.437 39.466 138.455 39.0911ZM140.566 5.19097C140.787 2.88811 142.813 0.960141 145.28 0.960141C147.8 0.960141 149.474 2.88811 149.252 5.19097C149.079 7.60093 147.109 9.47535 144.589 9.47535C142.123 9.47535 140.395 7.54738 140.566 5.19097ZM167.341 40.3229C156.188 40.3229 148.468 31.647 149.374 20.9361C150.284 10.1716 159.457 1.44213 170.61 1.44213C181.71 1.44213 189.32 10.1716 188.41 20.9361C187.504 31.647 178.44 40.3229 167.341 40.3229ZM157.149 20.9361C156.598 27.7375 160.608 33.3608 167.901 33.3608C175.139 33.3608 180.083 27.7375 180.635 20.9361C181.241 14.1346 177.235 8.40426 169.997 8.40426C162.704 8.40426 157.755 14.1346 157.149 20.9361ZM209.972 11.9389C208.491 9.36824 206.833 8.19004 204.206 8.19004C201.203 8.19004 198.871 9.79668 198.693 12.3138C198.447 15.0986 201.03 16.009 204.25 17.0266C208.524 18.419 216.096 20.347 215.35 28.9157C214.798 35.7172 209.207 40.3229 200.681 40.3229C194.89 40.3229 190.013 38.1271 187.225 32.7181C187.08 32.3968 187.09 32.1826 187.423 31.9683L193.392 28.3802C193.721 28.2195 193.88 28.2731 194.025 28.5944C195.672 32.129 198.547 33.6285 201.657 33.6285C205.142 33.6285 207.426 31.9148 207.661 29.3442C207.954 25.5953 204.098 24.4171 199.599 23.2389C193.936 21.7394 190.51 18.3654 191.007 12.6886C191.556 5.94074 197.246 1.49569 205.181 1.49569C210.812 1.49569 214.287 3.8521 216.71 7.97582C216.909 8.29714 216.788 8.56492 216.458 8.72558L210.712 12.1531C210.382 12.3138 210.17 12.2602 209.972 11.9389Z"
        fill="black" />
    <circle cx="368.176" cy="110.304" r="64.2658" transform="rotate(11.0051 368.176 110.304)"
        stroke="#FF005A" strokeWidth="0.165181" stroke-linejoin="round" stroke-dasharray="0.5 0.33" />
    <circle cx="368.176" cy="110.304" r="49.2269" transform="rotate(11.0051 368.176 110.304)"
        stroke="#FF005A" strokeWidth="0.165181" />
    <circle cx="368.176" cy="110.304" r="53.296" transform="rotate(11.0051 368.176 110.304)"
        stroke="#FF005A" strokeWidth="0.165181" />
    <circle cx="368.176" cy="110.304" r="51.3342" transform="rotate(11.0051 368.176 110.304)"
        stroke="#FF005A" strokeWidth="0.660724" stroke-miterlimit="16" stroke-linecap="round"
        stroke-linejoin="round" stroke-dasharray="0.02 2.81" />
    <circle cx="401.699" cy="127.903" r="2.75924" transform="rotate(11.0051 401.699 127.903)"
        stroke="#FF005A" strokeWidth="0.165181" />
    <circle cx="343.183" cy="138.838" r="2.84183" transform="rotate(11.0051 343.183 138.838)"
        fill="#FF005A" />
    <circle cx="341.538" cy="82.8985" r="2.75924" transform="rotate(11.0051 341.538 82.8985)"
        stroke="#FF005A" strokeWidth="0.165181" />
    <mask id="mask0_2535_56" style="mask-type:alpha" maskUnits="userSpaceOnUse" x="337" y="79"
        width="7" height="6">
        <circle cx="340.687" cy="82.0327" r="2.75924" transform="rotate(11.0051 340.687 82.0327)"
            fill="black" stroke="black" strokeWidth="0.165181" />
    </mask>
    <g mask="url(#mask0_2535_56)">
        <circle cx="341.538" cy="82.8985" r="2.84183" transform="rotate(11.0051 341.538 82.8985)"
            fill="#FF005A" />
    </g>
    <path fill-rule="evenodd" clip-rule="evenodd"
        d="M400.269 130.359C392.207 143.254 376.774 150.518 360.954 147.442C340.443 143.453 327.05 123.592 331.038 103.082C335.027 82.5713 354.888 69.1777 375.398 73.1664C395.909 77.1551 409.303 97.0158 405.314 117.526C404.782 120.262 403.967 122.871 402.907 125.329C402.957 125.353 403.006 125.378 403.055 125.404C404.122 122.932 404.941 120.309 405.476 117.558C409.482 96.9577 396.03 77.0104 375.43 73.0043C354.83 68.9981 334.882 82.4502 330.876 103.05C326.87 123.65 340.322 143.598 360.922 147.604C376.815 150.695 392.319 143.395 400.414 130.438C400.365 130.413 400.316 130.387 400.269 130.359Z"
        fill="#FF005A" />
    <circle cx="409.093" cy="60.5532" r="0.753759" transform="rotate(11.0051 409.093 60.5532)"
        fill="#FF005A" />
    <path
        d="M73.7003 60.9873L71.9549 111.14C71.2567 129.758 57.8748 142.791 37.9766 142.791C18.0784 142.791 5.39476 129.758 6.09294 111.14L7.8384 60.9873C7.8384 60.1727 8.18749 59.8236 9.00204 59.8236H22.9657C23.7802 59.8236 24.1293 60.1727 24.1293 60.9873L22.5002 109.395C22.0348 120.915 27.2712 127.896 38.4421 127.896C49.613 127.896 55.3148 120.915 55.7803 109.395L57.4094 60.9873C57.4094 60.1727 57.7585 59.8236 58.573 59.8236H72.5367C73.3512 59.8236 73.7003 60.1727 73.7003 60.9873ZM78.5276 140.115L80.6222 81.9328C80.6222 81.1182 80.9712 80.7691 81.7858 80.7691H94.7022C95.5167 80.7691 95.8658 81.1182 95.8658 81.9328L95.5167 92.2891C97.7276 83.9109 103.779 79.14 113.553 79.3728C114.368 79.3728 114.717 79.7218 114.717 80.5364L114.135 92.9873C114.135 93.8019 113.786 94.151 112.971 94.151H111.924C102.848 94.151 95.6331 100.202 95.284 110.326L94.2367 140.115C94.2367 140.929 93.8876 141.278 93.0731 141.278H79.6912C78.8767 141.278 78.5276 140.929 78.5276 140.115ZM148.139 97.5255C145.462 93.5691 141.971 91.9401 138.248 91.9401C133.942 91.9401 130.568 93.5691 130.451 97.2928C130.451 99.3873 131.266 101.249 138.364 103.111C155.819 107.649 159.659 114.166 159.31 123.242C158.96 134.413 148.604 142.791 135.222 142.791C125.448 142.791 117.535 139.533 111.251 133.016C110.669 132.435 110.669 131.853 111.251 131.387L120.56 123.358C121.142 122.893 121.608 122.893 122.19 123.475C126.146 127.896 130.451 129.991 135.222 129.991C140.575 129.991 143.717 127.315 143.833 123.707C143.95 120.566 142.553 118.82 133.011 116.609C117.069 112.769 114.859 105.438 115.091 97.7582C115.44 87.1691 124.168 79.2564 138.364 79.2564C147.79 79.2564 154.073 81.4673 159.659 88.7982C160.124 89.3801 160.008 89.9619 159.426 90.4273L149.651 97.7582C149.07 98.2237 148.604 98.2237 148.139 97.5255ZM177.534 111.14C177.185 120.333 183.701 128.595 193.709 128.595C204.065 128.595 210.931 120.682 211.28 111.256C211.629 101.831 205.229 93.6855 194.872 93.6855C184.865 93.6855 177.883 101.715 177.534 111.14ZM210.232 140.115L210.581 131.387C207.091 138.253 201.505 142.791 190.683 142.791C174.043 142.791 161.243 128.711 161.825 111.256C162.407 93.8019 176.254 79.4891 192.894 79.4891C203.367 79.4891 208.603 83.7946 211.629 90.311L211.978 81.9328C211.978 81.1182 212.327 80.7691 213.141 80.7691H226.407C227.221 80.7691 227.571 81.1182 227.571 81.9328L225.476 140.115C225.476 140.929 225.127 141.278 224.312 141.278H211.396C210.581 141.278 210.232 140.929 210.232 140.115ZM233.064 140.115L235.159 81.9328C235.159 81.1182 235.508 80.7691 236.322 80.7691H249.472C250.286 80.7691 250.635 81.1182 250.635 81.9328L250.402 89.6128C253.777 82.8637 259.944 79.3728 269.253 79.3728C277.748 79.3728 284.73 83.4455 288.453 90.7764C292.759 83.4455 298.81 79.3728 309.399 79.3728C322.432 79.3728 332.09 89.031 331.508 104.275L330.228 140.115C330.228 140.929 329.879 141.278 329.064 141.278H315.683C314.868 141.278 314.519 140.929 314.519 140.115L315.683 108.115C316.032 97.6419 311.144 93.1037 304.046 93.1037C296.715 93.1037 291.595 96.4782 291.246 108.115L290.083 140.115C290.083 140.929 289.733 141.278 288.919 141.278H275.537C274.722 141.278 274.373 140.929 274.373 140.115L275.537 108.115C275.886 97.6419 270.766 93.1037 262.97 93.1037C256.337 93.1037 250.286 97.6419 249.937 108.115L248.773 140.115C248.773 140.929 248.424 141.278 247.61 141.278H234.228C233.413 141.278 233.064 140.929 233.064 140.115ZM367.134 142.791C348.399 142.791 335.366 128.595 335.948 111.14C336.53 93.6855 350.61 79.3728 369.344 79.3728C388.079 79.3728 400.995 93.6855 400.414 111.14C399.832 128.595 385.868 142.791 367.134 142.791ZM351.657 111.14C351.308 120.566 357.592 128.478 367.599 128.478C377.606 128.478 384.355 120.566 384.704 111.14C385.054 101.715 378.77 93.6855 368.763 93.6855C358.755 93.6855 352.006 101.715 351.657 111.14ZM433.911 142.791C415.176 142.791 402.144 128.595 402.725 111.14C403.307 93.6855 417.387 79.3728 436.122 79.3728C454.856 79.3728 467.773 93.6855 467.191 111.14C466.609 128.595 452.646 142.791 433.911 142.791ZM418.435 111.14C418.085 120.566 424.369 128.478 434.376 128.478C444.384 128.478 451.133 120.566 451.482 111.14C451.831 101.715 445.547 93.6855 435.54 93.6855C425.533 93.6855 418.784 101.715 418.435 111.14ZM471.351 140.115L473.446 81.9328C473.446 81.1182 473.795 80.7691 474.609 80.7691H487.758C488.573 80.7691 488.922 81.1182 488.922 81.9328L488.689 89.6128C492.064 82.8637 498.231 79.3728 507.54 79.3728C520.573 79.3728 530.231 89.031 529.649 104.275L528.369 140.115C528.369 140.929 528.02 141.278 527.206 141.278H513.824C513.009 141.278 512.66 140.929 512.66 140.115L513.824 108.115C514.173 97.6419 509.053 93.1037 501.257 93.1037C494.624 93.1037 488.573 97.6419 488.224 108.115L487.06 140.115C487.06 140.929 486.711 141.278 485.896 141.278H472.515C471.7 141.278 471.351 140.929 471.351 140.115Z"
        fill="#FF005A" />
</svg>
