<svg width="198" height="47" viewBox="0 0 198 47" fill="none" xmlns="http://www.w3.org/2000/svg">
<g style="mix-blend-mode:difference">
<path fill-rule="evenodd" clip-rule="evenodd" d="M54.0653 14.8975C58.361 14.8975 59.809 11.9455 60.2402 7.72034C60.6714 3.49519 59.8259 0.543129 55.5303 0.543129C51.2346 0.543129 49.7867 3.49519 49.3555 7.72034C48.9243 11.9455 49.7697 14.8975 54.0653 14.8975ZM55.2572 3.21844C57.0592 3.21844 57.621 4.49152 57.2915 7.72034C56.9619 10.9492 56.1403 12.2222 54.3384 12.2222C52.5364 12.2222 51.9746 10.9492 52.3042 7.72034C52.6337 4.49152 53.4553 3.21844 55.2572 3.21844ZM2.07123 1.12891C2.08981 0.946977 2.25314 0.79949 2.43604 0.79949H4.68712C4.87002 0.79949 5.00324 0.946977 4.98466 1.12891L4.56905 5.19972C4.54377 5.44734 4.79256 5.60711 5.03239 5.51289C5.57544 5.29956 6.18854 5.15378 6.94091 5.15378C9.41733 5.15378 9.99185 6.48221 9.81102 8.25344L9.22652 13.9784C9.18938 14.3423 8.86271 14.6373 8.4969 14.6373H6.57701C6.3941 14.6373 6.26088 14.4898 6.27946 14.3079L6.85238 8.69625C6.92207 8.01359 6.73245 7.55233 5.94946 7.55233C5.34778 7.55233 4.77675 7.76424 4.43877 7.94119C4.33746 7.99424 4.27322 8.09738 4.26208 8.20653L3.63916 14.3079C3.62059 14.4898 3.45725 14.6373 3.27435 14.6373H1.02328C0.84037 14.6373 0.707153 14.4898 0.725728 14.3079L2.07123 1.12891ZM18.4058 10.6986C18.3767 10.8698 18.2193 11.0015 18.0468 11.0015H13.3499C13.1748 11.0015 13.0126 11.1377 13.0041 11.3116C12.9574 12.2624 13.5567 12.5514 14.8454 12.5514C15.904 12.5514 16.7716 12.3849 17.4292 12.1552C17.6701 12.0711 17.917 12.2341 17.8919 12.4801L17.7337 14.0302C17.7202 14.1627 17.6284 14.2829 17.4992 14.3304C16.4469 14.7166 15.2467 14.8946 14.2242 14.8946C11.2214 14.8946 9.92365 13.3447 10.2625 10.0237C10.6014 6.70261 12.1972 5.15278 15.018 5.15278C18.7768 5.15278 18.8815 7.90266 18.4058 10.6986ZM15.8707 8.91492C16.0403 8.0341 15.8349 7.36683 14.8285 7.36683C13.9427 7.36683 13.4454 7.90646 13.2691 8.86414C13.2357 9.04547 13.3709 9.19341 13.5538 9.19341H15.5246C15.6872 9.19341 15.8397 9.07605 15.8707 8.91492ZM20.1232 5.41109C19.9399 5.41109 19.7764 5.55915 19.7583 5.74145L18.8824 14.5736C18.8644 14.7552 18.9975 14.9021 19.18 14.9021H21.0964C21.4632 14.9021 21.7904 14.6056 21.8262 14.2407L22.4181 8.20629C22.4288 8.09673 22.4931 7.99302 22.5948 7.93978C22.9327 7.76291 23.5029 7.55133 24.1038 7.55133C24.8862 7.55133 25.0757 8.01259 25.0061 8.69525L24.432 14.5741C24.4142 14.7555 24.5473 14.9021 24.7297 14.9021H26.6464C27.0133 14.9021 27.3405 14.6055 27.3763 14.2406L27.9628 8.25245C28.1435 6.48121 27.5694 5.15278 25.0946 5.15278C24.1917 5.15278 23.1458 5.39302 22.1546 5.90058C21.9784 5.99083 21.7719 5.93565 21.6978 5.76963L21.6146 5.58286C21.5673 5.47698 21.4625 5.41109 21.3413 5.41109H20.1232ZM33.8699 12.4869C34.0869 12.4586 34.2751 12.618 34.2531 12.8329L34.0865 14.465C34.0713 14.613 33.9589 14.7434 33.81 14.7721C33.4034 14.8506 32.8761 14.8999 32.5486 14.8999C29.9988 14.8999 29.1447 13.8114 29.367 11.6342L29.7177 8.1998C29.7363 8.01787 29.6031 7.87038 29.4202 7.87038H28.6073C28.4244 7.87038 28.2912 7.72289 28.3098 7.54096L28.4502 6.16532C28.4654 6.01721 28.578 5.88731 28.7255 5.84782L29.7428 5.57558C29.8904 5.53609 30.003 5.40619 30.0181 5.25808L30.1609 3.85975C30.1761 3.7113 30.2892 3.5812 30.4371 3.54201L32.7514 2.92898C32.968 2.8716 33.1598 3.02938 33.1376 3.24671L32.9496 5.08708C32.9311 5.26901 33.0643 5.4165 33.2472 5.4165H34.8432C35.0261 5.4165 35.1593 5.56398 35.1407 5.74592L34.9574 7.54096C34.9389 7.72289 34.7755 7.87038 34.5926 7.87038H32.9966C32.8137 7.87038 32.6504 8.01787 32.6318 8.1998L32.3055 11.3944C32.2321 12.1139 32.4638 12.5198 33.3927 12.5198C33.5596 12.5198 33.7246 12.5058 33.8699 12.4869ZM40.57 11.9357C40.5589 12.0439 40.4951 12.1453 40.394 12.1965C40.168 12.3108 39.7241 12.496 39.2208 12.496C37.8742 12.496 37.6734 11.6104 37.8353 10.0237C37.9953 8.45538 38.3787 7.55132 39.7253 7.55132C40.2286 7.55132 40.6347 7.73655 40.8374 7.85087C40.928 7.90201 40.9712 8.00339 40.9601 8.11163L40.57 11.9357ZM44.1146 5.73958C44.1326 5.55801 43.9995 5.41109 43.817 5.41109H42.5782C42.4671 5.41109 42.3577 5.46649 42.287 5.55863L42.0747 5.83518C41.9471 6.00137 41.7123 6.03127 41.5623 5.9139C41.0019 5.4753 40.2298 5.15278 38.9874 5.15278C36.6217 5.15278 35.3065 6.62881 34.9602 10.0237C34.6138 13.4185 35.6278 14.8945 37.9934 14.8945L38.2502 14.8948C39.3737 14.8966 40.1518 14.8978 40.762 14.5678C40.929 14.4775 41.1349 14.4873 41.2418 14.6229L41.3715 14.7874C41.4272 14.858 41.5133 14.8984 41.6081 14.8984H42.5418C42.9083 14.8984 43.2354 14.6023 43.2715 14.2377L44.1146 5.73958ZM44.6964 14.8892C44.5138 14.8892 44.3807 14.7423 44.3988 14.5607L45.2772 5.74752C45.2953 5.56525 45.4589 5.41723 45.6421 5.41723H47.8816C48.0642 5.41723 48.1973 5.56418 48.1792 5.74577L47.3338 14.2286C47.2975 14.5932 46.9703 14.8892 46.6038 14.8892H44.6964ZM46.8645 4.49471C45.879 4.49471 45.2081 3.73825 45.3101 2.74193C45.4101 1.76406 46.2377 0.98915 47.2233 0.98915C48.1906 0.98915 48.8778 1.76406 48.7777 2.74193C48.6758 3.73825 47.8318 4.49471 46.8645 4.49471ZM64.3628 4.71292C64.2611 5.70924 64.757 6.0229 66.1564 6.22586C69.1352 6.65022 70.7279 7.27753 70.4266 10.2296C70.0762 13.6614 67.82 14.8975 64.5976 14.8975C63.2009 14.8975 61.5339 14.6658 60.5775 14.1397C60.4802 14.0862 60.4313 13.9783 60.4431 13.8629L60.6745 11.5959C60.7004 11.3418 60.996 11.1793 61.2159 11.288C61.956 11.6541 63.1664 12.0931 64.5926 12.0931C66.6498 12.0931 67.3165 11.4473 67.4126 10.5064C67.5199 9.45468 67.1006 9.10412 65.7358 8.91962C62.3238 8.45836 61.1002 7.42513 61.3771 4.71292C61.6332 2.20367 63.3138 0.543129 66.9185 0.543129C68.6209 0.543129 69.8817 0.82225 70.5432 1.13882C70.6476 1.18879 70.7008 1.30019 70.6886 1.42004L70.4708 3.55402C70.4458 3.79856 70.1675 3.96342 69.9445 3.88108C69.16 3.59153 67.9757 3.34759 66.8507 3.34759C65.3396 3.34759 64.4532 3.8273 64.3628 4.71292Z" fill="#222222"/>
</g>
<g style="mix-blend-mode:difference">
<path d="M6.46472 46.0438H9.58613C10.0815 46.0438 10.4831 45.6423 10.4831 45.1469V29.5685H16.2236V25.952H0.724182V29.5685H6.46472V46.0438Z" fill="#222222"/>
<path d="M18.0808 46.0438H21.8385C22.2458 46.0438 22.602 45.7693 22.7058 45.3754L24.7685 37.5479C24.9694 36.8303 25.1129 36.0553 25.2277 35.309C25.3426 36.0553 25.5148 36.8303 25.7444 37.5479L28.1841 46.0438H31.7147C32.1073 46.0438 32.4543 45.7885 32.571 45.4137L37.0245 31.1185H32.8053L30.7387 39.5857C30.5664 40.3033 30.3942 41.107 30.2794 41.8533C30.1646 41.107 29.9924 40.2746 29.7915 39.557L27.4666 31.1185H23.0176L20.8362 39.557C20.6353 40.2746 20.4631 41.107 20.3483 41.8533C20.2335 41.107 20.0613 40.3033 19.8891 39.5857L17.966 31.1185H13.4309L18.0808 46.0438Z" fill="#222222"/>
<path d="M37.7966 46.0438H40.7745C41.2699 46.0438 41.6715 45.6423 41.6715 45.1469V31.1185H37.7966V46.0438ZM37.3948 27.588C37.3948 28.8509 38.3994 29.8842 39.7197 29.8842C41.0687 29.8842 42.0446 28.8796 42.0446 27.588C42.0446 26.3538 41.0687 25.3205 39.7197 25.3205C38.3994 25.3205 37.3948 26.3538 37.3948 27.588Z" fill="#222222"/>
<path d="M49.0723 46.417C52.3731 46.417 54.8702 44.3504 54.8702 41.5949C54.8702 39.3561 53.8656 37.7488 49.5315 36.6294C47.7519 36.1701 47.5223 35.7109 47.5223 35.1942C47.5223 34.2757 48.326 33.8739 49.388 33.8739C50.3926 33.8739 51.3111 34.3332 52.0286 35.4813L54.8415 33.3286C53.3203 31.3481 51.7129 30.7453 49.3019 30.7453C45.8002 30.7453 43.7336 32.6971 43.7336 35.309C43.7336 37.2034 44.3363 39.0117 48.326 39.9589C50.6796 40.5042 51.0527 40.9348 51.0527 41.7097C51.0527 42.5995 50.3065 43.2597 48.9862 43.2597C47.7232 43.2597 46.5751 42.6569 45.4844 41.4227L42.8725 43.805C44.5085 45.5559 46.5464 46.417 49.0723 46.417Z" fill="#222222"/>
<path d="M61.7826 46.0438H63.0097C63.505 46.0438 63.9066 45.6423 63.9066 45.1469V42.5995H62.2993C61.553 42.5995 61.0938 42.169 61.0938 41.2218V34.4193H64.2511V31.1185H61.0938V27.7028L57.2189 28.1047V31.1185H55.1236V34.4193H57.2189V41.4227C57.2189 44.6661 58.8263 46.0438 61.7826 46.0438Z" fill="#222222"/>
<path d="M72.3008 46.417C74.8921 46.417 77.1305 45.4026 78.4557 43.8958C78.7664 43.5424 78.6685 43.0118 78.2925 42.7289L75.946 40.9635C75.2572 42.1116 73.9656 42.9727 72.3008 42.9727C70.349 42.9727 69.0287 41.7384 68.5982 39.9876H79.7635C79.8496 39.4996 79.8783 39.0404 79.8783 38.6099C79.8783 34.3044 76.7784 30.7453 72.3008 30.7453C67.8232 30.7453 64.5798 34.3044 64.5798 38.6099C64.5798 42.9153 67.6797 46.417 72.3008 46.417ZM68.5982 37.0886C69.0287 35.309 70.4064 34.0748 72.2434 34.0748C74.1378 34.0748 75.5442 35.4239 75.9747 37.0886H68.5982Z" fill="#222222"/>
<path d="M88.1857 46.417C90.8551 46.417 92.2041 45.2976 93.0078 43.6041V46.0438H95.8709C96.3662 46.0438 96.7678 45.6423 96.7678 45.1469V25.0909H92.893V33.4147C92.0893 31.836 90.7403 30.8027 88.1857 30.8027C84.0812 30.8027 80.8091 34.3332 80.8091 38.6386C80.8091 42.944 84.0812 46.417 88.1857 46.417ZM84.684 38.6099C84.684 36.2849 86.3487 34.3044 88.8172 34.3044C91.3717 34.3044 93.0078 36.3136 93.0078 38.6386C93.0078 40.9635 91.3717 42.9153 88.8172 42.9153C86.3487 42.9153 84.684 40.8774 84.684 38.6099Z" fill="#222222"/>
<path d="M107.069 46.417C111.633 46.417 114.417 43.9485 114.417 40.3033C114.417 35.7109 110.284 34.6776 107.93 33.9313C106.18 33.386 104.744 32.898 104.744 31.4055C104.744 30.0565 105.921 29.1954 107.529 29.1954C109.021 29.1954 109.94 29.9129 110.915 31.4629L114.36 29.3389C112.867 26.9853 110.858 25.6075 107.729 25.6075C103.481 25.6075 100.64 27.9899 100.64 31.6064C100.64 34.6489 102.62 36.4571 105.72 37.2608C108.189 37.8923 110.313 38.5237 110.313 40.5329C110.313 41.9107 109.165 42.8291 107.299 42.8291C105.548 42.8291 103.883 41.9394 102.85 39.8728L100.098 41.6242C99.6942 41.881 99.5596 42.4131 99.831 42.8071C101.586 45.3541 104.146 46.417 107.069 46.417Z" fill="#222222"/>
<path d="M123.165 46.417C125.728 46.417 127.63 45.6034 129.008 44.1881C129.341 43.8464 129.284 43.302 128.924 42.9896L126.753 41.107C125.978 42.1403 125.002 42.8865 123.51 42.8865C121.041 42.8865 119.348 40.9061 119.348 38.5811C119.348 36.2562 120.955 34.2757 123.424 34.2757C124.744 34.2757 125.892 34.9359 126.581 35.9692L129.566 33.5295C128.303 31.7786 126.093 30.7166 123.366 30.7453C118.802 30.774 115.473 34.247 115.473 38.5811C115.473 42.9153 118.889 46.417 123.165 46.417Z" fill="#222222"/>
<path d="M136.949 46.417C139.618 46.417 140.967 45.2976 141.771 43.6041V46.0438H144.634C145.129 46.0438 145.531 45.6423 145.531 45.1469V31.1185H141.685V33.4721C140.881 31.8647 139.532 30.8027 136.949 30.8027C132.844 30.8027 129.572 34.3332 129.572 38.6386C129.572 42.944 132.844 46.417 136.949 46.417ZM133.447 38.6099C133.447 36.2849 135.112 34.3044 137.58 34.3044C140.135 34.3044 141.771 36.3136 141.771 38.6386C141.771 40.9635 140.135 42.9153 137.58 42.9153C135.112 42.9153 133.447 40.8774 133.447 38.6099Z" fill="#222222"/>
<path d="M147.833 46.0438H150.811C151.306 46.0438 151.708 45.6423 151.708 45.1469V38.4089C151.708 35.9118 153.43 34.4193 155.669 34.4193H156.214V30.774C153.631 30.6305 152.11 31.8073 151.593 33.96V31.1185H147.833V46.0438Z" fill="#222222"/>
<path d="M157.503 46.0438H160.481C160.977 46.0438 161.378 45.6423 161.378 45.1469V25.0909H157.503V46.0438Z" fill="#222222"/>
<path d="M170.817 46.417C173.408 46.417 175.647 45.4026 176.972 43.8958C177.282 43.5425 177.185 43.0118 176.809 42.7289L174.462 40.9635C173.773 42.1116 172.482 42.9727 170.817 42.9727C168.865 42.9727 167.545 41.7384 167.114 39.9876H178.28C178.366 39.4996 178.394 39.0404 178.394 38.6099C178.394 34.3044 175.294 30.7453 170.817 30.7453C166.339 30.7453 163.096 34.3044 163.096 38.6099C163.096 42.9153 166.196 46.417 170.817 46.417ZM167.114 37.0886C167.545 35.309 168.922 34.0748 170.759 34.0748C172.654 34.0748 174.06 35.4239 174.491 37.0886H167.114Z" fill="#222222"/>
<path d="M185.189 46.0438H186.416C186.912 46.0438 187.313 45.6423 187.313 45.1469V42.5995H185.706C184.96 42.5995 184.5 42.169 184.5 41.2218V34.4193H187.658V31.1185H184.5V27.7028L180.626 28.1047V31.1185H178.53V34.4193H180.626V41.4227C180.626 44.6661 182.233 46.0438 185.189 46.0438Z" fill="#222222"/>
<path d="M194.888 46.0438H196.115C196.61 46.0438 197.012 45.6423 197.012 45.1469V42.5995H195.404C194.658 42.5995 194.199 42.169 194.199 41.2218V34.4193H197.356V31.1185H194.199V27.7028L190.324 28.1047V31.1185H188.229V34.4193H190.324V41.4227C190.324 44.6661 191.931 46.0438 194.888 46.0438Z" fill="#222222"/>
</g>
</svg>
