<svg width="478" height="275" viewBox="0 0 478 275" fill="none" xmlns="http://www.w3.org/2000/svg">
    <g clipPath="url(#clip0_5114_126)">
        <path
            d="M239 365.92C370.582 365.92 477.25 262.758 477.25 135.5C477.25 8.24254 370.582 -94.92 239 -94.92C107.418 -94.92 0.75 8.24254 0.75 135.5C0.75 262.758 107.418 365.92 239 365.92Z"
            fill="url(#paint0_linear_5114_126)" />
        <mask id="mask0_5114_126" style="mask-type:luminance" maskUnits="userSpaceOnUse" x="0"
            y="-95" width="478" height="461">
            <path
                d="M239 365.92C370.582 365.92 477.25 262.758 477.25 135.5C477.25 8.24254 370.582 -94.92 239 -94.92C107.418 -94.92 0.75 8.24254 0.75 135.5C0.75 262.758 107.418 365.92 239 365.92Z"
                fill="white" />
        </mask>
        <g mask="url(#mask0_5114_126)">
            <path
                d="M166.656 56.7452L169.339 49.0388C185.913 139.048 229.907 376.679 229.907 107.025C229.907 105.904 230.769 104.94 231.831 104.94L246.954 104.94C248.021 104.94 248.887 105.893 248.887 107.018C248.648 579.272 166.656 56.7452 166.656 56.7452Z"
                fill="#3DDC84" />
            <path
                d="M123.181 48.7213L83.6721 114.905C81.4028 118.706 82.7501 123.566 86.6801 125.761C90.61 127.956 95.6359 126.653 97.9052 122.852L137.915 55.8344C202.564 83.8627 276.509 83.8627 341.158 55.8344L381.168 122.852C383.517 126.607 388.569 127.81 392.451 125.538C396.223 123.331 397.521 118.639 395.396 114.905L355.889 48.7213C423.733 13.0373 470.14 -53.4032 476.929 -131.887L2.14185 -131.887C8.93197 -53.4032 55.3371 13.0373 123.181 48.7213Z"
                fill="#E4CA93" />
            <path
                d="M246.356 56.761L232.168 56.761C230.77 56.761 229.636 57.8571 229.636 59.2093L229.636 91.5499C229.636 92.902 230.77 93.9981 232.168 93.9981L246.356 93.9981C247.754 93.9981 248.887 92.902 248.887 91.5499L248.887 59.2093C248.887 57.8571 247.754 56.761 246.356 56.761Z"
                fill="#3DDC84" />
            <path
                d="M246.533 36.7492L231.99 36.7492C230.69 36.7492 229.636 37.7685 229.636 39.0258V43.7816C229.636 45.0389 230.69 46.0582 231.99 46.0582L246.533 46.0582C247.833 46.0582 248.887 45.0389 248.887 43.7816V39.0258C248.887 37.7685 247.833 36.7492 246.533 36.7492Z"
                fill="#3DDC84" />
            <path d="M143.649 90.364L138.836 90.364V95.0185L143.649 95.0185V90.364Z" fill="#E4CA93" />
            <path d="M163.763 158.228L158.95 158.228V162.882L163.763 162.882V158.228Z"
                fill="#E4CA93" />
            <path d="M378.471 229.551L373.659 229.551V234.205L378.471 234.205V229.551Z"
                fill="#E4CA93" />
            <path d="M279.462 131.146L274.649 131.146V135.801L279.462 135.801V131.146Z"
                fill="#E4CA93" />
            <path d="M318.814 92.6915L314.001 92.6915V97.3459L318.814 97.3459V92.6915Z"
                fill="#E4CA93" />
            <path d="M289.146 173.007L284.333 173.007V177.661L289.146 177.661V173.007Z"
                fill="#E4CA93" />
            <path d="M337.753 155.443L328.128 155.443V164.752L337.753 164.752V155.443Z"
                fill="#E4CA93" />
            <path d="M163.763 184.982L158.95 184.982V189.636L163.763 189.636V184.982Z"
                fill="#E4CA93" />
            <path d="M205.908 115.847L196.283 115.847V125.156L205.908 125.156V115.847Z"
                fill="#E4CA93" />
            <path d="M267.803 207.969L258.178 207.969V217.278L267.803 217.278V207.969Z"
                fill="#E4CA93" />
            <path d="M293.104 242.931L283.479 242.931V252.24L293.104 252.24V242.931Z" fill="#E4CA93" />
            <path d="M135.519 133.473L125.894 133.473V142.782L135.519 142.782V133.473Z"
                fill="#E4CA93" />
            <path d="M395.049 61.7666L385.424 61.7666V71.0756L395.049 71.0756V61.7666Z"
                fill="#E4CA93" />
            <path d="M107.903 213.5L98.2778 213.5V222.809L107.903 222.809V213.5Z" fill="#E4CA93" />
        </g>
        <path
            d="M239.262 -13.6223C231.288 -13.6223 224.824 -7.55075 224.824 -0.0609446V16.6664C224.824 18.1123 226.035 19.2851 227.532 19.2851C229.027 19.2851 230.239 18.1134 230.239 16.6664V12.1571C230.239 9.2653 232.664 6.92078 235.654 6.92078H242.873C245.863 6.92078 248.287 9.2653 248.287 12.1571V16.6664C248.287 18.1123 249.498 19.2851 250.995 19.2851C252.491 19.2851 253.702 18.1134 253.702 16.6664V-0.0609446C253.702 -7.55075 247.238 -13.6223 239.264 -13.6223H239.262Z"
            fill="#3DDC84" />
    </g>
    <defs>
        <linearGradient id="paint0_linear_5114_126" x1="239" y1="-134.309" x2="239" y2="244.285"
            gradientUnits="userSpaceOnUse">
            <stop stop-color="#073042" />
            <stop offset="1" stop-color="#073042" />
        </linearGradient>
        <clipPath id="clip0_5114_126">
            <rect width="476.5" height="279" fill="white" transform="translate(0.75 -4)" />
        </clipPath>
    </defs>
</svg>
