<svg width="96" height="74" viewBox="0 0 96 74" fill="none" xmlns="http://www.w3.org/2000/svg">
    <path d="M1.47823 73.4318L13.1936 38.0442H82.2706L94.469 73.4318H1.47823Z" fill="white"
        stroke="#DA2D89" />
    <path
        d="M39.9056 66.9391L47.8288 67.6008V42.1485L17.0464 39.2986L7.75504 69.2844C7.74554 69.315 7.75274 69.3484 7.77402 69.3724C8.55495 70.2532 9.73955 70.6616 10.8974 70.4492L26.4256 67.6008C30.87 66.7855 35.4028 66.563 39.9056 66.9391Z"
        fill="white" stroke="#DA2D89" strokeWidth="0.831339" />
    <path
        d="M29.4964 61.0573L16.7431 61.9264C15.0421 62.0423 13.3379 61.7514 11.7717 61.0777C11.4784 60.9516 11.3128 60.6378 11.3743 60.3244L17.4244 29.4975C17.4894 29.1664 17.8247 28.9627 18.1485 29.0576L31.5389 32.9811C32.1213 33.1517 32.7181 33.2684 33.3219 33.3297L42.0383 34.2144C44.5768 34.4721 46.7865 36.0611 47.8387 38.3857C48.0457 38.8429 48.1527 39.3389 48.1527 39.8408V67.4502C48.1527 67.6846 47.8861 67.8199 47.6955 67.6835C43.2999 64.5381 40.0481 62.9659 35.1571 61.5878C33.3202 61.0702 31.4004 60.9275 29.4964 61.0573Z"
        fill="white" stroke="#DA2D89" strokeWidth="1.14712" />
    <path
        d="M48.1527 38.5095V67.2189C48.1527 67.331 48.2757 67.3999 48.3719 67.3425C60.0096 60.3994 78.4794 64.9166 86.8572 68.2591C87.0835 68.3493 87.3097 68.1343 87.2367 67.9019L78.9076 41.3929C78.7345 40.8421 78.3493 40.3692 77.8455 40.0872C58.0171 28.9912 49.7918 34.37 48.1527 38.5095Z"
        fill="white" stroke="#DA2D89" strokeWidth="1.14712" />
    <path
        d="M53.0168 17.1289L53.9982 19.7811C54.6471 21.5346 56.0297 22.9172 57.7833 23.5661L60.4354 24.5475C60.443 24.5503 60.4458 24.5526 60.4459 24.5527C60.4461 24.5529 60.4461 24.5529 60.4461 24.5529C60.4461 24.5529 60.4461 24.5529 60.4462 24.5529C60.4466 24.5535 60.4492 24.5584 60.4492 24.5673C60.4492 24.5762 60.4466 24.5811 60.4462 24.5817C60.4461 24.5817 60.4461 24.5818 60.4461 24.5818C60.4461 24.5818 60.4461 24.5818 60.4459 24.5819C60.4458 24.5821 60.443 24.5843 60.4354 24.5872L57.7833 25.5685C56.0297 26.2174 54.6471 27.6 53.9982 29.3536L53.0168 32.0057C53.014 32.0133 53.0118 32.0161 53.0116 32.0162C53.0115 32.0165 53.0115 32.0165 53.0114 32.0165C53.0114 32.0165 53.0114 32.0165 53.0114 32.0165C53.0108 32.0169 53.0059 32.0195 52.997 32.0195C52.9881 32.0195 52.9832 32.0169 52.9826 32.0165C52.9826 32.0165 52.9826 32.0165 52.9826 32.0165C52.9825 32.0165 52.9825 32.0165 52.9824 32.0162C52.9822 32.0161 52.98 32.0133 52.9772 32.0057L51.9958 29.3536C51.3469 27.6 49.9643 26.2174 48.2107 25.5685L45.5586 24.5872C45.551 24.5843 45.5482 24.5821 45.5481 24.5819C45.5478 24.5817 45.5479 24.5818 45.5478 24.5817C45.5474 24.5811 45.5448 24.5762 45.5448 24.5673C45.5448 24.5584 45.5474 24.5535 45.5478 24.5529C45.5479 24.5529 45.5479 24.5529 45.5479 24.5529C45.5479 24.5529 45.5479 24.5529 45.5481 24.5527C45.5482 24.5526 45.551 24.5503 45.5586 24.5475L48.2107 23.5661C49.9643 22.9172 51.3469 21.5346 51.9958 19.7811L52.9772 17.1289C52.9799 17.1214 52.9822 17.1186 52.9824 17.1184L52.9824 17.1184C52.9826 17.1181 52.9825 17.1182 52.9826 17.1182C52.9832 17.1177 52.9881 17.1151 52.997 17.1151C53.0059 17.1151 53.0108 17.1177 53.0114 17.1182C53.0115 17.1182 53.0114 17.1181 53.0116 17.1184C53.0118 17.1185 53.014 17.1213 53.0168 17.1289Z"
        fill="white" stroke="#DA2D89" />
    <path
        d="M42.6627 40.0393C40.952 40.6896 39.6009 42.0406 38.9507 43.7514C38.3004 42.0406 36.9493 40.6896 35.2386 40.0393C36.9493 39.389 38.3004 38.038 38.9507 36.3272C39.6009 38.038 40.952 39.389 42.6627 40.0393Z"
        fill="white" stroke="#DA2D89" />
    <path
        d="M54.4754 5.9358C56.1862 5.28555 57.5373 3.93447 58.1875 2.22374C58.8378 3.93447 60.1888 5.28554 61.8996 5.9358C60.1888 6.58606 58.8378 7.93713 58.1875 9.64787C57.5373 7.93713 56.1862 6.58606 54.4754 5.9358Z"
        fill="white" stroke="#DA2D89" />
    <path
        d="M29.449 13.2105C31.1597 12.5602 32.5108 11.2091 33.161 9.4984C33.8113 11.2091 35.1624 12.5602 36.8731 13.2105C35.1624 13.8607 33.8113 15.2118 33.161 16.9225C32.5108 15.2118 31.1597 13.8607 29.449 13.2105Z"
        fill="white" stroke="#DA2D89" />
</svg>
