<svg width="58" height="77" viewBox="0 0 58 77" fill="none" xmlns="http://www.w3.org/2000/svg">
    <g clipPath="url(#clip0_6386_5569)">
        <path fill-rule="evenodd" clip-rule="evenodd"
            d="M19.0207 47.1773L39.6404 56.7104C42.1961 57.8925 43.9999 59.8764 44.9742 62.1522C47.4383 67.9151 44.0705 73.809 38.7839 75.9288C33.4961 78.0475 27.8609 76.684 25.2985 70.691L16.3248 49.6507C15.6294 48.0198 17.3763 46.4172 19.0207 47.1773Z"
            fill="black" />
        <path fill-rule="evenodd" clip-rule="evenodd"
            d="M20.257 41.0062L41.542 32.9601C48.616 30.286 56.3434 35.3456 56.239 42.6972C56.2374 42.7933 56.2358 42.8891 56.2333 42.986C56.0804 50.1448 48.568 54.9565 41.6493 52.4239L20.2771 44.6015C18.5723 43.9778 18.5597 41.6477 20.257 41.0062Z"
            fill="black" />
        <path fill-rule="evenodd" clip-rule="evenodd"
            d="M19.0647 38.2192L39.9887 29.3285C46.9416 26.3737 48.7062 17.5057 43.2606 12.3818C43.1893 12.3143 43.1179 12.2477 43.0457 12.181C37.7066 7.22542 28.8809 8.97024 25.8414 15.4975L16.452 35.6637C15.7029 37.2719 17.396 38.928 19.0647 38.2192Z"
            fill="black" />
        <path fill-rule="evenodd" clip-rule="evenodd"
            d="M13.6805 34.706L21.2878 13.847C22.2309 11.2607 22.0562 8.62311 21.0812 6.34737C18.612 0.586862 11.9252 -1.2726 6.63926 0.85029C1.35415 2.974 -1.63233 7.79706 0.935064 13.7877L9.96755 34.8051C10.668 36.4338 13.0741 36.3696 13.6805 34.706Z"
            fill="black" />
    </g>
    <defs>
        <clipPath id="clip0_6386_5569">
            <rect width="57.6484" height="76.8646" fill="white" />
        </clipPath>
    </defs>
</svg>
