<svg width="618" height="311" viewBox="0 0 618 311" fill="none" xmlns="http://www.w3.org/2000/svg">
    <path
        d="M385.926 121.574C385.896 100.059 369.14 82.426 349.48 76.0636C325.066 68.1628 292.866 69.308 269.554 80.3073C241.299 93.6407 232.423 122.847 232.092 151.976C231.821 175.925 234.211 239.002 269.79 239.451C296.226 239.787 300.162 205.723 312.394 189.318C321.097 177.646 332.302 174.349 346.095 170.936C369.803 165.068 385.96 146.358 385.926 121.574Z"
        fill="#BAD8FF" />
    <mask id="mask0_6381_5534" style="mask-type:alpha" maskUnits="userSpaceOnUse" x="232" y="70"
        width="154" height="170">
        <path
            d="M385.926 121.574C385.896 100.059 369.14 82.426 349.48 76.0636C325.066 68.1628 292.866 69.308 269.554 80.3073C241.299 93.6407 232.423 122.847 232.092 151.976C231.821 175.925 234.211 239.002 269.79 239.451C296.226 239.787 300.162 205.723 312.394 189.318C321.097 177.646 332.302 174.349 346.095 170.936C369.803 165.068 385.96 146.358 385.926 121.574Z"
            fill="#D19D69" />
    </mask>
    <g mask="url(#mask0_6381_5534)">
        <mask id="path-3-outside-1_6381_5534" maskUnits="userSpaceOnUse" x="214.796" y="-91.3432"
            width="382.446" height="379.695" fill="black">
            <rect fill="white" x="214.796" y="-91.3432" width="382.446" height="379.695" />
            <path
                d="M268.036 70.1079L270.813 60.4316C270.96 59.918 271.496 59.621 272.01 59.7682L391.011 93.8639C391.79 94.0871 392.482 93.3111 392.172 92.5625L344.732 -21.7763C344.527 -22.2699 344.761 -22.8361 345.255 -23.0411L354.551 -26.903C355.045 -27.108 355.611 -26.8743 355.816 -26.3809L403.356 87.9167C403.667 88.665 404.705 88.7223 405.097 88.0127L464.912 -20.3664C465.17 -20.8343 465.759 -21.0044 466.227 -20.7464L475.042 -15.8858C475.51 -15.6278 475.681 -15.0394 475.423 -14.5713L415.702 93.8597C415.311 94.5697 415.913 95.417 416.712 95.2808L539.682 74.3126L539.689 74.3113C539.692 74.3109 539.695 74.3128 539.695 74.3156L541.716 86.1355C541.717 86.1384 541.715 86.1411 541.712 86.1415L418.753 107.218C417.954 107.355 417.667 108.354 418.272 108.894L510.624 191.326C511.022 191.682 511.057 192.294 510.701 192.692L504.001 200.206C503.645 200.604 503.034 200.64 502.635 200.284L410.212 117.932C409.607 117.393 408.646 117.792 408.601 118.601L401.68 243.161C401.68 243.164 401.677 243.166 401.675 243.166L389.701 242.506C389.698 242.506 389.696 242.503 389.696 242.5L396.51 117.934C396.554 117.125 395.643 116.623 394.983 117.092L294.067 188.786C293.631 189.095 293.027 188.993 292.717 188.558L286.884 180.353C286.574 179.918 286.676 179.314 287.111 179.004L387.965 107.223C388.625 106.753 388.45 105.728 387.671 105.504L268.699 71.3051C268.185 71.1575 267.888 70.6216 268.036 70.1079Z" />
        </mask>
        <path
            d="M403.075 103.688L402.35 105.793L402.405 105.812L402.461 105.828L403.075 103.688ZM403.075 103.688L403.8 101.584L403.745 101.565L403.69 101.549L403.075 103.688ZM403.168 103.916L404.431 105.75L404.444 105.74L404.457 105.731L403.168 103.916ZM403.167 103.917L401.904 102.083L401.891 102.093L401.878 102.102L403.167 103.917ZM403.283 103.98L405.505 104.102L405.506 104.086L405.507 104.07L403.283 103.98ZM403.283 103.98L401.06 103.859L401.059 103.874L401.058 103.89L403.283 103.98ZM403.525 103.936L405.006 102.274L404.963 102.236L404.918 102.2L403.525 103.936ZM403.525 103.936L402.043 105.598L402.087 105.636L402.132 105.673L403.525 103.936ZM403.605 103.846L405.155 102.248L405.122 102.216L405.087 102.185L403.605 103.846ZM403.605 103.846L402.055 105.444L402.088 105.476L402.123 105.507L403.605 103.846ZM403.642 103.72L404.006 105.916L404.018 105.914L403.642 103.72ZM403.641 103.72L403.277 101.524L403.265 101.526L403.641 103.72ZM403.621 103.601L403.257 101.404L403.247 101.406L403.621 103.601ZM403.621 103.601L403.986 105.797L403.995 105.795L403.621 103.601ZM403.308 103.428L401.252 104.283L401.256 104.292L403.308 103.428ZM403.308 103.428L405.382 102.619L405.371 102.591L405.359 102.564L403.308 103.428ZM403.196 103.474L401.122 104.284L401.131 104.306L401.14 104.328L403.196 103.474ZM403.196 103.474L405.27 102.664L405.261 102.643L405.252 102.621L403.196 103.474ZM403.108 103.572L402.495 105.712L402.528 105.722L402.56 105.73L403.108 103.572ZM403.109 103.572L403.722 101.432L403.689 101.423L403.657 101.415L403.109 103.572ZM269.427 65.2705L270.04 63.1304L268.812 67.41L269.427 65.2705ZM289.803 184.454L288.512 182.64L291.092 186.269L289.803 184.454ZM403.098 103.818L401.807 102.004L401.807 102.004L403.098 103.818ZM395.688 242.833L393.465 242.712L397.911 242.957L395.688 242.833ZM403.403 103.987L405.626 104.11L405.626 104.11L403.403 103.987ZM507.349 196.447L505.868 198.109L508.832 194.787L507.349 196.447ZM540.703 80.226L541.079 82.4202L540.329 78.0315L540.703 80.226ZM470.633 -18.3138L472.583 -17.2398L468.684 -19.3895L470.633 -18.3138ZM403.545 103.493L401.595 102.42L401.595 102.42L403.545 103.493ZM403.439 103.435L401.49 102.36L401.49 102.36L403.439 103.435ZM349.904 -24.9696L351.959 -25.8246L347.848 -24.1165L349.904 -24.9696ZM403.8 101.584L403.8 101.584L402.35 105.793L402.35 105.793L403.8 101.584ZM401.905 102.083L401.904 102.083L404.43 105.75L404.431 105.75L401.905 102.083ZM405.507 104.07L405.507 104.069L401.058 103.89L401.058 103.891L405.507 104.07ZM404.918 102.2L404.918 102.2L402.132 105.673L402.132 105.673L404.918 102.2ZM402.055 105.444L402.055 105.444L405.155 102.248L405.155 102.248L402.055 105.444ZM403.277 101.523L403.277 101.524L404.006 105.916L404.006 105.916L403.277 101.523ZM403.985 105.797L403.986 105.797L403.257 101.404L403.257 101.404L403.985 105.797ZM401.256 104.292L401.256 104.292L405.359 102.564L405.359 102.564L401.256 104.292ZM405.27 102.665L405.27 102.664L401.122 104.283L401.122 104.284L405.27 102.665ZM402.56 105.73L402.561 105.73L403.657 101.415L403.656 101.415L402.56 105.73ZM268.814 67.4105L402.495 105.712L403.722 101.432L270.04 63.1304L268.814 67.4105ZM403.69 101.549L270.042 63.131L268.812 67.41L402.46 105.828L403.69 101.549ZM291.093 186.268L404.388 105.632L401.807 102.004L288.512 182.64L291.093 186.268ZM401.878 102.102L288.513 182.639L291.092 186.269L404.457 105.731L401.878 102.102ZM397.911 242.955L405.505 104.102L401.06 103.859L393.465 242.712L397.911 242.955ZM401.181 103.863L393.465 242.71L397.911 242.957L405.626 104.11L401.181 103.863ZM508.83 194.785L405.006 102.274L402.044 105.598L505.868 198.109L508.83 194.785ZM402.123 105.507L505.867 198.108L508.832 194.787L405.088 102.185L402.123 105.507ZM540.327 78.0319L403.265 101.525L404.018 105.914L541.079 82.4202L540.327 78.0319ZM403.995 105.795L541.077 82.4205L540.329 78.0315L403.247 101.406L403.995 105.795ZM468.683 -19.3878L401.595 102.42L405.495 104.567L472.583 -17.2398L468.683 -19.3878ZM405.388 104.511L472.582 -17.2381L468.684 -19.3895L401.49 102.36L405.388 104.511ZM347.849 -24.1147L401.252 104.283L405.363 102.573L351.959 -25.8246L347.849 -24.1147ZM405.252 102.621L351.96 -25.8228L347.848 -24.1165L401.14 104.327L405.252 102.621ZM402.461 105.828C400.727 105.33 400.338 103.05 401.807 102.004L404.388 105.632C405.957 104.516 405.541 102.08 403.69 101.549L402.461 105.828ZM401.14 104.328C400.449 102.662 401.989 100.936 403.722 101.432L402.495 105.712C404.346 106.243 405.99 104.399 405.252 102.621L401.14 104.328ZM405.006 102.274C403.568 100.993 401.287 101.941 401.18 103.863L405.626 104.11C405.526 105.91 403.39 106.798 402.043 105.598L405.006 102.274ZM405.087 102.185C406.433 103.386 405.794 105.609 404.017 105.914L403.265 101.526C401.368 101.851 400.686 104.225 402.123 105.507L405.087 102.185ZM404.457 105.731C402.987 106.776 400.962 105.658 401.06 103.859L405.505 104.101C405.61 102.18 403.448 100.986 401.878 102.102L404.457 105.731ZM403.247 101.406C405.025 101.103 406.364 102.989 405.495 104.567L401.595 102.42C400.666 104.105 402.097 106.119 403.995 105.795L403.247 101.406ZM401.234 104.237C401.977 106.142 404.493 106.133 405.388 104.51L401.49 102.36C402.325 100.846 404.683 100.829 405.382 102.619L401.234 104.237ZM270.813 60.4316L275.092 61.6598L275.092 61.6598L270.813 60.4316ZM268.036 70.1079L263.756 68.8798L263.756 68.8798L268.036 70.1079ZM286.884 180.353L290.512 177.773L290.512 177.773L286.884 180.353ZM292.717 188.558L296.346 185.977L296.346 185.977L292.717 188.558ZM396.51 117.934L392.064 117.691L392.064 117.691L396.51 117.934ZM389.696 242.5L394.141 242.764L394.142 242.754L394.142 242.743L389.696 242.5ZM389.701 242.506L389.946 238.06L389.944 238.06L389.701 242.506ZM401.675 243.166L401.429 247.611L401.432 247.611L401.675 243.166ZM401.68 243.161L397.235 242.914L397.234 242.919L401.68 243.161ZM408.601 118.601L413.047 118.848L413.047 118.848L408.601 118.601ZM504.001 200.206L507.324 203.169L507.324 203.169L504.001 200.206ZM510.701 192.692L514.024 195.656L514.024 195.656L510.701 192.692ZM418.753 107.218L418.001 102.83L418.001 102.83L418.753 107.218ZM541.712 86.1415L542.464 90.5298L542.467 90.5293L541.712 86.1415ZM541.716 86.1355L537.327 86.8858L537.328 86.889L541.716 86.1355ZM539.695 74.3156L535.307 75.0654L535.307 75.0659L539.695 74.3156ZM539.689 74.3113L538.944 69.9219L538.934 69.9236L539.689 74.3113ZM539.682 74.3126L540.431 78.7015L540.437 78.7003L539.682 74.3126ZM416.712 95.2808L415.964 90.8919L415.964 90.8919L416.712 95.2808ZM354.551 -26.903L356.259 -22.7914L356.259 -22.7914L354.551 -26.903ZM345.255 -23.0411L343.547 -27.1527L345.255 -23.0411ZM391.011 93.8639L392.238 89.5838L392.238 89.5838L391.011 93.8639ZM272.01 59.7682L273.236 55.4881L273.236 55.4881L272.01 59.7682ZM268.699 71.3051L269.929 67.0261L269.929 67.0261L268.699 71.3051ZM387.671 105.504L388.901 101.225L388.901 101.225L387.671 105.504ZM387.965 107.223L385.383 103.596L385.383 103.596L387.965 107.223ZM287.111 179.004L284.529 175.377L284.529 175.377L287.111 179.004ZM294.067 188.786L296.645 192.415L296.645 192.415L294.067 188.786ZM394.983 117.092L392.404 113.463L392.404 113.463L394.983 117.092ZM410.212 117.932L413.174 114.608L413.174 114.608L410.212 117.932ZM502.635 200.284L505.597 196.96L505.597 196.96L502.635 200.284ZM510.624 191.326L513.588 188.005L513.588 188.005L510.624 191.326ZM418.272 108.894L421.237 105.572L421.237 105.572L418.272 108.894ZM415.702 93.8597L419.602 96.0077L419.602 96.0077L415.702 93.8597ZM475.423 -14.5713L471.523 -16.7193L471.523 -16.7193L475.423 -14.5713ZM464.912 -20.3664L461.014 -22.5179L461.014 -22.5178L464.912 -20.3664ZM405.097 88.0127L401.199 85.8613L401.199 85.8613L405.097 88.0127ZM403.356 87.9167L407.466 86.2069L407.466 86.2069L403.356 87.9167ZM355.816 -26.3809L351.705 -24.6711L351.705 -24.6711L355.816 -26.3809ZM344.732 -21.7763L348.844 -23.4826L344.732 -21.7763ZM392.172 92.5625L396.284 90.8563L396.284 90.8563L392.172 92.5625ZM266.533 59.2034L263.756 68.8798L272.315 71.3361L275.092 61.6598L266.533 59.2034ZM283.255 182.933L289.089 191.138L296.346 185.977L290.512 177.773L283.255 182.933ZM392.064 117.691L385.251 242.257L394.142 242.743L400.955 118.177L392.064 117.691ZM389.456 246.951L401.429 247.611L401.92 238.72L389.946 238.06L389.456 246.951ZM406.126 243.408L413.047 118.848L404.156 118.354L397.235 242.914L406.126 243.408ZM507.324 203.169L514.024 195.656L507.379 189.729L500.678 197.242L507.324 203.169ZM419.505 111.606L542.464 90.5298L540.96 81.7533L418.001 102.83L419.505 111.606ZM546.105 85.3852L544.084 73.5653L535.307 75.0659L537.327 86.8858L546.105 85.3852ZM538.934 69.9236L538.927 69.9248L540.437 78.7003L540.444 78.6991L538.934 69.9236ZM538.934 69.9236L415.964 90.8919L417.461 99.6697L540.431 78.7015L538.934 69.9236ZM477.192 -19.7848L468.376 -24.6453L464.077 -16.8474L472.893 -11.9869L477.192 -19.7848ZM352.843 -31.0147L343.547 -27.1527L346.963 -18.9294L356.259 -22.7914L352.843 -31.0147ZM392.238 89.5838L273.236 55.4881L270.783 64.0482L389.785 98.144L392.238 89.5838ZM267.469 75.5842L386.441 109.783L388.901 101.225L269.929 67.0261L267.469 75.5842ZM385.383 103.596L284.529 175.377L289.693 182.631L390.546 110.85L385.383 103.596ZM296.645 192.415L397.561 120.722L392.404 113.463L291.488 185.156L296.645 192.415ZM407.25 121.256L499.673 203.608L505.597 196.96L413.174 114.608L407.25 121.256ZM513.588 188.005L421.237 105.572L415.307 112.215L507.659 194.648L513.588 188.005ZM419.602 96.0077L479.323 -12.4233L471.523 -16.7193L411.802 91.7118L419.602 96.0077ZM461.014 -22.5178L401.199 85.8613L408.995 90.164L468.81 -18.2151L461.014 -22.5178ZM407.466 86.2069L359.927 -28.0907L351.705 -24.6711L399.245 89.6265L407.466 86.2069ZM340.62 -20.0701L388.06 94.2688L396.284 90.8563L348.844 -23.4826L340.62 -20.0701ZM356.259 -22.7914C354.483 -22.0534 352.444 -22.8948 351.705 -24.6711L359.927 -28.0907C358.778 -30.8538 355.607 -32.1627 352.843 -31.0147L356.259 -22.7914ZM401.199 85.8613C402.608 83.3068 406.346 83.5127 407.466 86.2069L399.245 89.6265C400.988 93.8173 406.801 94.1377 408.995 90.164L401.199 85.8613ZM468.376 -24.6453C465.756 -26.0902 462.46 -25.1378 461.014 -22.5179L468.81 -18.215C467.88 -16.5308 465.762 -15.9185 464.077 -16.8474L468.376 -24.6453ZM544.084 73.5658C543.67 71.1455 541.374 69.5093 538.944 69.9219L540.435 78.7008C538.01 79.1124 535.719 77.4801 535.307 75.0654L544.084 73.5658ZM418.001 102.83C413.527 103.596 411.921 109.193 415.307 112.215L421.237 105.572C423.414 107.515 422.381 111.113 419.505 111.606L418.001 102.83ZM500.678 197.242C501.959 195.807 504.16 195.68 505.597 196.96L499.673 203.608C501.907 205.599 505.332 205.402 507.324 203.169L500.678 197.242ZM413.047 118.848C412.885 121.761 409.428 123.197 407.25 121.256L413.174 114.608C409.785 111.588 404.408 113.822 404.156 118.354L413.047 118.848ZM401.432 247.611C403.889 247.745 405.992 245.863 406.126 243.403L397.234 242.919C397.368 240.465 399.466 238.587 401.917 238.72L401.432 247.611ZM385.252 242.237C385.106 244.701 386.991 246.817 389.459 246.951L389.944 238.06C392.406 238.194 394.287 240.305 394.141 242.764L385.252 242.237ZM400.955 118.177C401.203 113.645 396.104 110.834 392.404 113.463L397.561 120.722C395.182 122.412 391.904 120.605 392.064 117.691L400.955 118.177ZM289.089 191.138C290.823 193.577 294.206 194.148 296.645 192.415L291.488 185.156C293.057 184.042 295.231 184.41 296.346 185.977L289.089 191.138ZM290.512 177.773C291.627 179.341 291.26 181.516 289.693 182.631L284.529 175.377C282.091 177.112 281.521 180.495 283.255 182.934L290.512 177.773ZM263.756 68.8798C262.931 71.7562 264.593 74.7575 267.469 75.5842L269.929 67.0261C271.778 67.5576 272.846 69.487 272.315 71.3361L263.756 68.8798ZM389.785 98.144C394.148 99.3941 398.024 95.0485 396.284 90.8563L388.06 94.2688C386.941 91.5738 389.433 88.7801 392.238 89.5838L389.785 98.144ZM275.092 61.6598C274.562 63.509 272.633 64.5781 270.783 64.0482L273.236 55.4881C270.359 54.6638 267.359 56.327 266.533 59.2035L275.092 61.6598ZM343.547 -27.1527C340.783 -26.0047 339.473 -22.8342 340.62 -20.0701L348.844 -23.4826C349.582 -21.7056 348.739 -19.6675 346.963 -18.9294L343.547 -27.1527ZM415.964 90.8919C418.84 90.4014 421.009 93.4519 419.602 96.0077L411.802 91.7118C409.612 95.6874 412.986 100.433 417.461 99.6697L415.964 90.8919ZM472.893 -11.9869C471.208 -12.9157 470.595 -15.0341 471.523 -16.7193L479.323 -12.4233C480.767 -15.0446 479.813 -18.3399 477.192 -19.7848L472.893 -11.9869ZM514.024 195.656C516.016 193.422 515.821 189.997 513.588 188.005L507.659 194.648C506.224 193.367 506.098 191.165 507.378 189.729L514.024 195.656ZM386.441 109.783C383.636 108.977 383.006 105.288 385.383 103.596L390.546 110.85C394.244 108.218 393.263 102.479 388.901 101.225L386.441 109.783ZM542.467 90.5293C544.878 90.1144 546.523 87.8225 546.104 85.3821L537.328 86.889C536.91 84.4543 538.552 82.1677 540.957 81.7538L542.467 90.5293Z"
            fill="#1769E0" mask="url(#path-3-outside-1_6381_5534)" />
        <path
            d="M298.242 201.604L222.633 234.777C222.198 234.968 222.238 235.597 222.694 235.731L252.784 244.557C253.999 244.914 254.958 245.85 255.344 247.056L264.778 276.564C264.921 277.009 265.537 277.043 265.727 276.616L298.911 202.277C299.1 201.852 298.668 201.417 298.242 201.604Z"
            stroke="#1765D2" strokeWidth="2" />
        <path
            d="M202.109 40.3856C208.505 38.1715 215.543 38.8178 221.428 42.1595L233.357 48.9331C235.26 50.0137 237.304 50.8236 239.431 51.3393L252.762 54.572C259.339 56.1668 264.911 60.5159 268.055 66.5088L274.428 78.6561C275.445 80.594 276.727 82.3807 278.237 83.9644L287.704 93.8912C292.375 98.7886 294.711 105.46 294.116 112.201L292.91 125.865C292.717 128.045 292.83 130.242 293.244 132.39L295.842 145.86C297.123 152.505 295.482 159.38 291.336 164.729L282.934 175.573C281.594 177.302 280.501 179.211 279.688 181.243L274.591 193.978C272.076 200.261 266.979 205.157 260.599 207.416L247.669 211.996C245.606 212.726 243.655 213.741 241.872 215.011L230.699 222.969C225.187 226.895 218.251 228.258 211.663 226.709L198.31 223.571C196.179 223.07 193.989 222.869 191.803 222.973L178.101 223.627C171.342 223.95 164.77 221.347 160.065 216.483L150.528 206.623C149.007 205.05 147.273 203.697 145.378 202.603L133.497 195.745C127.636 192.362 123.515 186.619 122.187 179.983L119.495 166.533C119.065 164.387 118.338 162.311 117.335 160.366L111.048 148.174C107.947 142.159 107.585 135.1 110.055 128.8L115.062 116.029C115.861 113.991 116.371 111.852 116.579 109.674L117.882 96.0182C118.524 89.2813 122.036 83.1471 127.521 79.1822L138.637 71.1455C140.411 69.8633 141.997 68.3401 143.349 66.6197L151.828 55.8361C156.011 50.5161 162.282 47.2544 169.039 46.884L182.736 46.1332C184.921 46.0134 187.079 45.5894 189.147 44.8735L202.109 40.3856Z"
            fill="url(#paint0_linear_6381_5534)" />
    </g>
    <defs>
        <linearGradient id="paint0_linear_6381_5534" x1="194.387" y1="42.3503" x2="194.387"
            y2="230.562" gradientUnits="userSpaceOnUse">
            <stop stop-color="#85FFBB" />
            <stop offset="1" stop-color="#5490E2" />
        </linearGradient>
    </defs>
</svg>
