<svg width="446" height="204" viewBox="0 0 446 204" fill="none" xmlns="http://www.w3.org/2000/svg">
<circle cx="224.163" cy="257.265" r="240.868" stroke="#D19D69" stroke-width="1.48236"/>
<path d="M223.896 125.745C229.307 174.449 226.848 196.859 224.021 202.673H237.538C234.711 196.859 232.252 174.449 237.663 125.745C235.232 125.992 232.671 120.435 232.807 111.37L244.364 120.669C240.477 116.479 233.378 103.759 233.378 58.506L230.779 51.8756L228.18 58.506C228.18 103.759 221.082 116.479 217.195 120.669L228.752 111.37C228.887 120.435 226.327 125.992 223.896 125.745Z" fill="#1A1A1A" stroke="#C49C6D" stroke-width="1.48236"/>
<path d="M230.816 128.728L230.816 128.769H230.867L230.895 128.817L230.938 128.791L230.942 128.714C230.942 128.704 230.951 128.697 230.961 128.697C230.971 128.698 230.978 128.706 230.978 128.716L230.975 128.769L231.045 128.727C231.053 128.722 231.064 128.725 231.07 128.733C231.075 128.742 231.072 128.753 231.063 128.758L230.984 128.806L231.043 128.836C231.052 128.84 231.056 128.851 231.051 128.86C231.047 128.869 231.036 128.873 231.027 128.868L230.947 128.828L230.913 128.848L230.94 128.894L230.914 128.938L230.954 128.96L231.023 128.925C231.032 128.921 231.043 128.924 231.047 128.933C231.052 128.942 231.048 128.953 231.039 128.958L230.992 128.982L231.063 129.021C231.072 129.026 231.075 129.037 231.07 129.046C231.065 129.054 231.054 129.058 231.045 129.053L230.964 129.008L230.968 129.074C230.969 129.084 230.961 129.093 230.951 129.093C230.941 129.094 230.933 129.086 230.932 129.076L230.927 128.987L230.896 128.97L230.867 129.019H230.813L230.814 129.066L230.879 129.108C230.887 129.114 230.89 129.125 230.884 129.134C230.879 129.142 230.867 129.144 230.859 129.139L230.815 129.11L230.816 129.191C230.816 129.201 230.808 129.209 230.798 129.21C230.788 129.21 230.78 129.202 230.78 129.192L230.778 129.099L230.723 129.136C230.714 129.141 230.703 129.139 230.698 129.13C230.692 129.122 230.694 129.111 230.703 129.105L230.778 129.056L230.777 129.019H230.723L230.696 128.972L230.655 128.996L230.651 129.073C230.651 129.083 230.642 129.091 230.632 129.09C230.622 129.09 230.615 129.081 230.615 129.071L230.618 129.019L230.548 129.06C230.54 129.065 230.529 129.063 230.524 129.054C230.518 129.045 230.521 129.034 230.53 129.029L230.609 128.981L230.55 128.952C230.541 128.947 230.537 128.936 230.542 128.927C230.546 128.918 230.557 128.915 230.566 128.919L230.646 128.959L230.678 128.94L230.651 128.894L230.671 128.859L230.632 128.833L230.56 128.862C230.551 128.866 230.54 128.862 230.537 128.852C230.533 128.843 230.537 128.832 230.547 128.829L230.596 128.809L230.528 128.764C230.52 128.758 230.518 128.747 230.523 128.738C230.529 128.73 230.54 128.728 230.548 128.733L230.626 128.785L230.627 128.718C230.627 128.708 230.636 128.7 230.646 128.701C230.656 128.701 230.664 128.709 230.663 128.719L230.661 128.809L230.689 128.828L230.723 128.769H230.78L230.779 128.718L230.714 128.676C230.706 128.67 230.704 128.659 230.709 128.651C230.714 128.642 230.726 128.64 230.734 128.645L230.778 128.674L230.777 128.593C230.777 128.583 230.785 128.575 230.795 128.575C230.805 128.574 230.813 128.582 230.813 128.592L230.815 128.685L230.871 128.649C230.879 128.643 230.89 128.645 230.896 128.654C230.901 128.662 230.899 128.673 230.89 128.679L230.816 128.728Z" fill="#C49C6D"/>
<path fill-rule="evenodd" clip-rule="evenodd" d="M229.116 129.473C229.318 128.778 229.94 128.275 230.658 128.226C230.717 128.222 230.767 128.218 230.769 128.217C230.772 128.217 230.831 128.22 230.9 128.225C231.529 128.272 232.07 128.636 232.345 129.2C232.63 129.784 232.56 130.492 232.165 131.01C231.901 131.357 231.516 131.591 231.08 131.67C230.909 131.701 230.661 131.701 230.488 131.67C229.76 131.538 229.202 130.98 229.072 130.253C229.03 130.015 229.047 129.712 229.116 129.473ZM231.816 128.834C231.566 128.601 231.273 128.467 230.932 128.43C230.58 128.391 230.223 128.48 229.921 128.681C229.777 128.777 229.595 128.959 229.505 129.096C229.379 129.289 229.3 129.491 229.265 129.714C229.229 129.945 229.251 130.205 229.326 130.433C229.356 130.525 229.462 130.748 229.484 130.766C229.497 130.778 229.512 130.767 229.765 130.56L229.861 130.482L229.828 130.468C229.767 130.444 229.767 130.439 229.812 130.385C229.889 130.294 229.897 130.277 229.936 130.118C229.957 130.033 229.977 129.955 229.979 129.945C229.982 129.936 229.974 129.949 229.962 129.975L229.94 130.021L229.896 129.988C229.7 129.838 229.742 129.525 229.97 129.439C230.075 129.399 230.21 129.422 230.286 129.493L230.311 129.517L230.382 129.478C230.465 129.434 230.57 129.404 230.7 129.388C230.871 129.367 231.105 129.417 231.236 129.502C231.261 129.519 231.262 129.519 231.303 129.484C231.45 129.358 231.691 129.417 231.776 129.601C231.811 129.677 231.812 129.789 231.779 129.86C231.757 129.909 231.708 129.967 231.659 130.002L231.632 130.021L231.617 129.982C231.608 129.96 231.599 129.943 231.598 129.945C231.593 129.949 231.678 130.268 231.689 130.29C231.695 130.301 231.723 130.337 231.75 130.37C231.803 130.434 231.805 130.454 231.758 130.463C231.742 130.466 231.727 130.472 231.724 130.477C231.72 130.484 232.029 130.745 232.053 130.754C232.068 130.76 232.136 130.64 232.184 130.524C232.224 130.425 232.264 130.281 232.282 130.166C232.297 130.075 232.297 129.815 232.282 129.724C232.224 129.37 232.065 129.065 231.816 128.834ZM231.121 129.538C231.101 129.527 231.05 129.508 231.007 129.496C230.917 129.472 230.725 129.462 230.648 129.478C230.568 129.494 230.475 129.524 230.446 129.544L230.419 129.562L230.49 129.583C230.529 129.594 230.584 129.614 230.613 129.628L230.665 129.653L230.694 129.618C230.709 129.599 230.726 129.584 230.731 129.584C230.742 129.584 230.782 129.661 230.775 129.668C230.772 129.671 230.763 129.668 230.755 129.661C230.742 129.651 230.733 129.655 230.694 129.687C230.669 129.709 230.639 129.74 230.627 129.757C230.6 129.797 230.552 129.924 230.527 130.02C230.509 130.089 230.5 130.214 230.513 130.214C230.515 130.214 230.54 130.199 230.568 130.181C230.596 130.162 230.65 130.131 230.687 130.11L230.755 130.073L230.758 130.013C230.761 129.951 230.756 129.941 230.736 129.968C230.725 129.982 230.719 129.977 230.684 129.928C230.638 129.865 230.634 129.84 230.663 129.803C230.683 129.778 230.687 129.778 230.788 129.778C230.877 129.778 230.895 129.78 230.908 129.795C230.936 129.826 230.929 129.879 230.89 129.933C230.87 129.96 230.852 129.981 230.849 129.981C230.847 129.981 230.838 129.974 230.831 129.964C230.82 129.95 230.818 129.956 230.82 130.01L230.823 130.072L230.881 130.106C230.913 130.124 230.965 130.156 230.998 130.177C231.03 130.197 231.06 130.214 231.063 130.214C231.075 130.214 231.07 130.125 231.056 130.056C231.019 129.885 230.956 129.749 230.885 129.69C230.842 129.654 230.833 129.65 230.817 129.66C230.802 129.669 230.798 129.669 230.798 129.659C230.799 129.642 230.835 129.584 230.846 129.584C230.851 129.584 230.868 129.6 230.883 129.62C230.912 129.655 230.912 129.655 230.938 129.638C230.953 129.629 231.008 129.607 231.061 129.59L231.158 129.559L231.121 129.538ZM230.157 129.589C230.229 129.629 230.236 129.592 230.164 129.549C230.123 129.525 230.06 129.518 230.034 129.534C230.025 129.54 230.036 129.546 230.068 129.554C230.094 129.56 230.134 129.576 230.157 129.589ZM231.524 129.548C231.547 129.544 231.553 129.54 231.543 129.534C231.507 129.511 231.405 129.537 231.371 129.578C231.346 129.609 231.372 129.611 231.431 129.583C231.464 129.567 231.506 129.552 231.524 129.548ZM230.542 129.72C230.529 129.715 230.49 129.704 230.457 129.695C230.423 129.687 230.389 129.678 230.38 129.675C230.34 129.663 230.355 129.763 230.398 129.797C230.447 129.836 230.521 129.817 230.552 129.758C230.566 129.73 230.566 129.729 230.542 129.72ZM231.116 129.817C231.169 129.817 231.215 129.767 231.215 129.709C231.215 129.688 231.212 129.671 231.208 129.672C231.204 129.672 231.158 129.684 231.106 129.697C230.999 129.725 230.994 129.733 231.045 129.784C231.071 129.81 231.085 129.817 231.116 129.817ZM230.962 130.187C230.912 130.15 230.853 130.111 230.83 130.099C230.808 130.088 230.788 130.078 230.787 130.078C230.77 130.078 230.619 130.179 230.528 130.25C230.525 130.252 230.536 130.266 230.551 130.282C230.594 130.327 230.66 130.345 230.784 130.345C230.908 130.345 230.985 130.325 231.027 130.282L231.053 130.255L230.962 130.187Z" fill="#C49C6D"/>
<path fill-rule="evenodd" clip-rule="evenodd" d="M230.312 127.998C230.315 127.994 230.418 127.695 230.512 127.413L230.558 127.274L230.997 127.28L231.118 127.641C231.23 127.979 231.24 128.003 231.263 128.008C231.407 128.041 231.604 128.12 231.752 128.203L231.828 128.246L232.162 128.081C232.346 127.99 232.499 127.915 232.503 127.915C232.507 127.915 232.578 127.984 232.662 128.068L232.815 128.221L232.479 128.899L232.518 128.967C232.593 129.1 232.675 129.305 232.715 129.456L232.723 129.489L233.062 129.604C233.249 129.668 233.411 129.724 233.423 129.729C233.445 129.738 233.445 129.74 233.445 129.952C233.445 130.097 233.442 130.167 233.434 130.171C233.429 130.175 233.266 130.231 233.074 130.297C232.881 130.362 232.723 130.419 232.722 130.424C232.721 130.429 232.704 130.485 232.684 130.549C232.644 130.678 232.591 130.802 232.528 130.915C232.504 130.956 232.485 130.995 232.485 131.001C232.485 131.015 232.52 131.087 232.68 131.408L232.813 131.675L232.506 131.995L232.172 131.827C231.988 131.735 231.833 131.66 231.827 131.66C231.821 131.66 231.8 131.67 231.779 131.683C231.673 131.75 231.495 131.826 231.334 131.871L231.24 131.898L230.997 132.625L230.778 132.628C230.607 132.63 230.557 132.628 230.554 132.618C230.551 132.611 230.498 132.451 230.435 132.261C230.372 132.072 230.316 131.912 230.31 131.906C230.304 131.9 230.251 131.881 230.192 131.864C230.072 131.829 229.953 131.78 229.853 131.725C229.816 131.705 229.771 131.681 229.753 131.672L229.721 131.655L229.054 131.995L228.736 131.677L229.076 131.007L229.044 130.952C228.98 130.84 228.922 130.709 228.874 130.564L228.823 130.415L228.635 130.35C228.532 130.315 228.372 130.26 228.28 130.229L228.113 130.171V129.732L228.14 129.721C228.154 129.715 228.314 129.66 228.495 129.6L228.825 129.49L228.852 129.395C228.888 129.271 228.965 129.086 229.024 128.98L229.072 128.896L228.908 128.565C228.817 128.383 228.743 128.229 228.743 128.223C228.743 128.211 229.033 127.915 229.045 127.915C229.049 127.915 229.203 127.989 229.387 128.079L229.722 128.244L229.841 128.182C229.972 128.113 230.093 128.064 230.222 128.027C230.269 128.013 230.309 128 230.312 127.998ZM232.033 128.671C231.765 128.41 231.462 128.257 231.071 128.186C230.932 128.161 230.635 128.161 230.493 128.187C230.292 128.223 230.135 128.274 229.971 128.357C229.567 128.564 229.25 128.921 229.097 129.346C229.059 129.452 229.042 129.516 229.014 129.671C228.984 129.829 228.987 130.101 229.019 130.277C229.073 130.568 229.203 130.857 229.38 131.078C229.565 131.308 229.857 131.527 230.099 131.617C230.135 131.63 230.172 131.645 230.183 131.65C230.263 131.689 230.532 131.742 230.697 131.751C231.178 131.778 231.68 131.589 232.028 131.25C232.316 130.969 232.472 130.672 232.553 130.25C232.58 130.105 232.581 129.817 232.554 129.67C232.479 129.26 232.314 128.945 232.033 128.671Z" fill="#C49C6D"/>
<path d="M230.779 164.736L231.902 166.682H229.656L230.779 164.736Z" fill="#C49C6D"/>
<path d="M230.779 169.236L231.902 171.181H229.656L230.779 169.236Z" fill="#C49C6D"/>
<path fill-rule="evenodd" clip-rule="evenodd" d="M227.283 202.712C228.528 200.706 231.019 192.938 231.019 177.914C231.019 192.938 233.509 200.706 234.754 202.712H227.283ZM231.515 202.696L231.018 200.751L230.522 202.696H231.515Z" fill="#C49C6D"/>
<path d="M230.779 0.664551L233.12 11.0246L242.1 5.35369L236.429 14.3341L246.789 16.6743L236.429 19.0144L242.1 27.9948L233.12 22.3239L230.779 32.684L228.439 22.3239L219.459 27.9948L225.13 19.0144L214.77 16.6743L225.13 14.3341L219.459 5.35369L228.439 11.0246L230.779 0.664551Z" fill="#D19D69"/>
</svg>
