<svg width="457" height="108" viewBox="0 0 457 108" fill="none" xmlns="http://www.w3.org/2000/svg">
<path d="M24.3759 19.916V1.78803H29.4799V20.972C29.4799 23.7294 28.9519 26.1347 27.8959 28.188C26.8692 30.212 25.3732 31.7667 23.4079 32.852C21.4426 33.9667 19.0959 34.524 16.3679 34.524C13.6399 34.524 11.2932 33.9667 9.32791 32.852C7.39191 31.7667 5.89591 30.212 4.83991 28.188C3.81325 26.1347 3.29991 23.7294 3.29991 20.972V1.78803H8.40391V19.916C8.40391 23.172 9.07858 25.636 10.4279 27.308C11.8066 28.98 13.7866 29.816 16.3679 29.816C18.9492 29.816 20.9292 28.98 22.3079 27.308C23.6866 25.636 24.3759 23.172 24.3759 19.916Z" fill="#E4CA93"/>
<path d="M44.4901 10.632C45.2528 10.632 45.9714 10.7494 46.6461 10.984C47.3208 11.1894 47.8634 11.468 48.2741 11.82L46.4261 15.648C45.7514 15.2374 44.9741 15.032 44.0941 15.032C43.0381 15.032 42.0848 15.3254 41.2341 15.912C40.4128 16.4987 39.7528 17.3934 39.2541 18.596C38.7848 19.7694 38.5501 21.192 38.5501 22.864V33.996H33.6661V11.204H37.9781C38.0661 12.7 38.1688 13.9174 38.2861 14.856C38.9314 13.448 39.7821 12.392 40.8381 11.688C41.8941 10.984 43.1114 10.632 44.4901 10.632Z" fill="#E4CA93"/>
<path d="M64.9735 27.352C64.9735 28.7894 64.5921 30.0507 63.8295 31.136C63.0668 32.2214 61.9961 33.0574 60.6175 33.644C59.2681 34.2307 57.7281 34.524 55.9975 34.524C53.6801 34.524 51.6855 34.0107 50.0135 32.984C48.3415 31.9574 47.2268 30.564 46.6695 28.804L50.2775 26.692C50.7761 27.8947 51.5095 28.804 52.4775 29.42C53.4455 30.036 54.6188 30.344 55.9975 30.344C57.2001 30.344 58.1535 30.1094 58.8575 29.64C59.5615 29.1707 59.9135 28.5107 59.9135 27.66C59.9135 26.9854 59.6935 26.4427 59.2535 26.032C58.8135 25.592 58.2708 25.2547 57.6255 25.02C56.9801 24.756 56.0561 24.448 54.8535 24.096C53.2988 23.656 52.0228 23.2307 51.0255 22.82C50.0575 22.38 49.2215 21.7494 48.5175 20.928C47.8428 20.1067 47.5055 19.036 47.5055 17.716C47.5055 16.2494 47.9015 14.988 48.6935 13.932C49.4855 12.8467 50.5415 12.0254 51.8615 11.468C53.2108 10.9107 54.6775 10.632 56.2615 10.632C58.4028 10.632 60.2215 11.1014 61.7175 12.04C63.2428 12.9787 64.2401 14.2254 64.7095 15.78L61.0575 17.804C60.6175 16.8654 59.9721 16.132 59.1215 15.604C58.3001 15.076 57.3028 14.812 56.1295 14.812C55.0441 14.812 54.1641 15.032 53.4895 15.472C52.8441 15.912 52.5215 16.528 52.5215 17.32C52.5215 17.9067 52.7268 18.4054 53.1375 18.816C53.5481 19.1974 54.0615 19.5054 54.6775 19.74C55.3228 19.9747 56.2028 20.2534 57.3175 20.576C58.9015 20.9867 60.2068 21.412 61.2335 21.852C62.2601 22.292 63.1401 22.9667 63.8735 23.876C64.6068 24.756 64.9735 25.9147 64.9735 27.352Z" fill="#E4CA93"/>
<path d="M76.1027 10.632C78.9187 10.632 81.1627 11.468 82.8347 13.14C84.5361 14.7827 85.3867 17.1294 85.3867 20.18V33.996H81.2067C81.1187 32.6174 81.0454 31.6934 80.9867 31.224C80.2827 32.3094 79.3587 33.1307 78.2147 33.688C77.1001 34.2454 75.7801 34.524 74.2547 34.524C72.7587 34.524 71.3507 34.2454 70.0307 33.688C68.7401 33.1307 67.7134 32.324 66.9507 31.268C66.1881 30.1827 65.8067 28.892 65.8067 27.396C65.8067 25.3134 66.5987 23.6267 68.1827 22.336C69.7667 21.016 71.8201 20.2534 74.3427 20.048C76.8654 19.8427 79.4761 20.2387 82.1747 21.236L80.5467 22.776V20.752C80.5761 18.6987 80.1801 17.2027 79.3587 16.264C78.5374 15.296 77.3347 14.812 75.7507 14.812C74.4894 14.812 73.4187 15.0907 72.5387 15.648C71.6587 16.176 70.9401 16.9827 70.3827 18.068L66.7747 16C67.5374 14.3574 68.7401 13.052 70.3827 12.084C72.0254 11.116 73.9321 10.632 76.1027 10.632ZM74.9147 30.608C75.8827 30.608 76.7921 30.4174 77.6427 30.036C78.5227 29.6254 79.2267 29.0534 79.7547 28.32C80.2827 27.5574 80.5467 26.648 80.5467 25.592V24.272C78.5814 23.7734 76.8507 23.5827 75.3547 23.7C73.8881 23.788 72.7587 24.1547 71.9667 24.8C71.1747 25.416 70.7787 26.2374 70.7787 27.264C70.7787 28.32 71.1601 29.1414 71.9227 29.728C72.7147 30.3147 73.7121 30.608 74.9147 30.608Z" fill="#E4CA93"/>
<path d="M113.798 10.632C115.998 10.632 117.773 11.4387 119.122 13.052C120.471 14.6654 121.146 16.9827 121.146 20.004V33.996H116.394V21.632C116.394 19.52 116.057 17.9067 115.382 16.792C114.737 15.648 113.725 15.076 112.346 15.076C111.437 15.076 110.615 15.34 109.882 15.868C109.149 16.3667 108.562 17.1147 108.122 18.112C107.711 19.1094 107.506 20.3267 107.506 21.764V33.996H102.71V21.632C102.71 19.5494 102.373 17.936 101.698 16.792C101.053 15.648 100.055 15.076 98.706 15.076C97.826 15.076 97.0193 15.34 96.286 15.868C95.5527 16.3667 94.966 17.1147 94.526 18.112C94.086 19.1094 93.866 20.3267 93.866 21.764V33.996H89.07V11.204H93.294C93.382 12.348 93.4847 13.4774 93.602 14.592C94.3647 13.272 95.3033 12.2894 96.418 11.644C97.562 10.9694 98.8233 10.632 100.202 10.632C101.727 10.632 103.062 11.0427 104.206 11.864C105.379 12.656 106.23 13.8294 106.758 15.384C107.521 13.7707 108.503 12.5827 109.706 11.82C110.938 11.028 112.302 10.632 113.798 10.632Z" fill="#E4CA93"/>
<path d="M123.534 22.556C123.534 20.2387 124.048 18.1707 125.074 16.352C126.13 14.5334 127.524 13.1254 129.254 12.128C130.985 11.1307 132.848 10.632 134.842 10.632C136.837 10.632 138.7 11.1307 140.43 12.128C142.161 13.096 143.54 14.4894 144.566 16.308C145.593 18.1267 146.106 20.2094 146.106 22.556C146.106 24.9027 145.593 26.9854 144.566 28.804C143.54 30.6227 142.161 32.0307 140.43 33.028C138.7 34.0254 136.837 34.524 134.842 34.524C132.848 34.524 130.985 34.0254 129.254 33.028C127.524 32.0307 126.13 30.6227 125.074 28.804C124.048 26.9854 123.534 24.9027 123.534 22.556ZM128.638 22.556C128.638 24.1107 128.902 25.46 129.43 26.604C129.988 27.748 130.736 28.628 131.674 29.244C132.613 29.8307 133.669 30.124 134.842 30.124C136.016 30.124 137.057 29.8307 137.966 29.244C138.905 28.628 139.638 27.748 140.166 26.604C140.724 25.46 141.002 24.1107 141.002 22.556C141.002 21.0014 140.724 19.6667 140.166 18.552C139.638 17.408 138.905 16.5427 137.966 15.956C137.057 15.34 136.016 15.032 134.842 15.032C133.669 15.032 132.613 15.34 131.674 15.956C130.736 16.5427 129.988 17.408 129.43 18.552C128.902 19.6667 128.638 21.0014 128.638 22.556Z" fill="#E4CA93"/>
<path d="M147.545 22.556C147.545 20.2387 148.059 18.1707 149.085 16.352C150.141 14.5334 151.535 13.1254 153.265 12.128C154.996 11.1307 156.859 10.632 158.853 10.632C160.848 10.632 162.711 11.1307 164.441 12.128C166.172 13.096 167.551 14.4894 168.577 16.308C169.604 18.1267 170.117 20.2094 170.117 22.556C170.117 24.9027 169.604 26.9854 168.577 28.804C167.551 30.6227 166.172 32.0307 164.441 33.028C162.711 34.0254 160.848 34.524 158.853 34.524C156.859 34.524 154.996 34.0254 153.265 33.028C151.535 32.0307 150.141 30.6227 149.085 28.804C148.059 26.9854 147.545 24.9027 147.545 22.556ZM152.649 22.556C152.649 24.1107 152.913 25.46 153.441 26.604C153.999 27.748 154.747 28.628 155.685 29.244C156.624 29.8307 157.68 30.124 158.853 30.124C160.027 30.124 161.068 29.8307 161.977 29.244C162.916 28.628 163.649 27.748 164.177 26.604C164.735 25.46 165.013 24.1107 165.013 22.556C165.013 21.0014 164.735 19.6667 164.177 18.552C163.649 17.408 162.916 16.5427 161.977 15.956C161.068 15.34 160.027 15.032 158.853 15.032C157.68 15.032 156.624 15.34 155.685 15.956C154.747 16.5427 153.999 17.408 153.441 18.552C152.913 19.6667 152.649 21.0014 152.649 22.556Z" fill="#E4CA93"/>
<path d="M184.888 10.632C187.382 10.632 189.362 11.4534 190.828 13.096C192.295 14.7094 193.028 17.056 193.028 20.136V33.996H188.144V21.632C188.144 19.5494 187.763 17.936 187 16.792C186.238 15.648 185.064 15.076 183.48 15.076C182.424 15.076 181.456 15.34 180.576 15.868C179.726 16.3667 179.036 17.1147 178.508 18.112C178.01 19.08 177.76 20.2974 177.76 21.764V33.996H172.876V11.204H177.188C177.276 12.7 177.379 13.932 177.496 14.9C178.259 13.492 179.271 12.436 180.532 11.732C181.823 10.9987 183.275 10.632 184.888 10.632Z" fill="#E4CA93"/>
<path d="M222.875 20.576L232.423 33.996H226.263L217.639 21.544C217.58 21.544 217.521 21.544 217.463 21.544C217.404 21.544 217.36 21.544 217.331 21.544H211.963V33.996H206.859V1.78803H217.331C219.707 1.78803 221.789 2.19869 223.579 3.02003C225.397 3.84136 226.791 5.01469 227.759 6.54002C228.756 8.03602 229.255 9.75203 229.255 11.688C229.255 13.7707 228.683 15.5894 227.539 17.144C226.424 18.6987 224.869 19.8427 222.875 20.576ZM216.759 6.18802H211.963V17.188H216.759C218.959 17.188 220.689 16.7187 221.951 15.78C223.241 14.812 223.887 13.448 223.887 11.688C223.887 9.92802 223.256 8.57869 221.995 7.64003C220.733 6.67203 218.988 6.18802 216.759 6.18802Z" fill="#E4CA93"/>
<path d="M242.604 10.632C244.863 10.632 246.813 11.2187 248.456 12.392C250.099 13.536 251.272 15.12 251.976 17.144C252.68 19.1387 252.827 21.3387 252.416 23.744H236.62C236.737 25.2107 237.089 26.428 237.676 27.396C238.292 28.364 239.055 29.0827 239.964 29.552C240.873 30.0214 241.9 30.256 243.044 30.256C244.188 30.256 245.185 30.0214 246.036 29.552C246.916 29.0534 247.62 28.32 248.148 27.352L251.8 29.464C251.184 31.0774 250.04 32.324 248.368 33.204C246.725 34.084 244.877 34.524 242.824 34.524C240.771 34.524 238.879 34.0547 237.148 33.116C235.417 32.1774 234.039 30.8134 233.012 29.024C231.985 27.2054 231.472 25.02 231.472 22.468C231.472 20.004 231.985 17.8774 233.012 16.088C234.039 14.2987 235.388 12.9494 237.06 12.04C238.761 11.1014 240.609 10.632 242.604 10.632ZM242.472 14.812C241.504 14.812 240.624 15.0174 239.832 15.428C239.069 15.8094 238.409 16.4107 237.852 17.232C237.295 18.024 236.913 18.9774 236.708 20.092H247.532C247.473 18.9774 247.224 18.024 246.784 17.232C246.344 16.44 245.743 15.8387 244.98 15.428C244.247 15.0174 243.411 14.812 242.472 14.812Z" fill="#E4CA93"/>
<path d="M254.869 33.996V0.512024H259.753V33.996H254.869Z" fill="#E4CA93"/>
<path d="M273.61 10.632C275.869 10.632 277.819 11.2187 279.462 12.392C281.105 13.536 282.278 15.12 282.982 17.144C283.686 19.1387 283.833 21.3387 283.422 23.744H267.626C267.743 25.2107 268.095 26.428 268.682 27.396C269.298 28.364 270.061 29.0827 270.97 29.552C271.879 30.0214 272.906 30.256 274.05 30.256C275.194 30.256 276.191 30.0214 277.042 29.552C277.922 29.0534 278.626 28.32 279.154 27.352L282.806 29.464C282.19 31.0774 281.046 32.324 279.374 33.204C277.731 34.084 275.883 34.524 273.83 34.524C271.777 34.524 269.885 34.0547 268.154 33.116C266.423 32.1774 265.045 30.8134 264.018 29.024C262.991 27.2054 262.478 25.02 262.478 22.468C262.478 20.004 262.991 17.8774 264.018 16.088C265.045 14.2987 266.394 12.9494 268.066 12.04C269.767 11.1014 271.615 10.632 273.61 10.632ZM273.478 14.812C272.51 14.812 271.63 15.0174 270.838 15.428C270.075 15.8094 269.415 16.4107 268.858 17.232C268.301 18.024 267.919 18.9774 267.714 20.092H278.538C278.479 18.9774 278.23 18.024 277.79 17.232C277.35 16.44 276.749 15.8387 275.986 15.428C275.253 15.0174 274.417 14.812 273.478 14.812Z" fill="#E4CA93"/>
<path d="M295.071 10.632C297.887 10.632 300.131 11.468 301.803 13.14C303.505 14.7827 304.355 17.1294 304.355 20.18V33.996H300.175C300.087 32.6174 300.014 31.6934 299.955 31.224C299.251 32.3094 298.327 33.1307 297.183 33.688C296.069 34.2454 294.749 34.524 293.223 34.524C291.727 34.524 290.319 34.2454 288.999 33.688C287.709 33.1307 286.682 32.324 285.919 31.268C285.157 30.1827 284.775 28.892 284.775 27.396C284.775 25.3134 285.567 23.6267 287.151 22.336C288.735 21.016 290.789 20.2534 293.311 20.048C295.834 19.8427 298.445 20.2387 301.143 21.236L299.515 22.776V20.752C299.545 18.6987 299.149 17.2027 298.327 16.264C297.506 15.296 296.303 14.812 294.719 14.812C293.458 14.812 292.387 15.0907 291.507 15.648C290.627 16.176 289.909 16.9827 289.351 18.068L285.743 16C286.506 14.3574 287.709 13.052 289.351 12.084C290.994 11.116 292.901 10.632 295.071 10.632ZM293.883 30.608C294.851 30.608 295.761 30.4174 296.611 30.036C297.491 29.6254 298.195 29.0534 298.723 28.32C299.251 27.5574 299.515 26.648 299.515 25.592V24.272C297.55 23.7734 295.819 23.5827 294.323 23.7C292.857 23.788 291.727 24.1547 290.935 24.8C290.143 25.416 289.747 26.2374 289.747 27.264C289.747 28.32 290.129 29.1414 290.891 29.728C291.683 30.3147 292.681 30.608 293.883 30.608Z" fill="#E4CA93"/>
<path d="M324.187 27.352C324.187 28.7894 323.805 30.0507 323.043 31.136C322.28 32.2214 321.209 33.0574 319.831 33.644C318.481 34.2307 316.941 34.524 315.211 34.524C312.893 34.524 310.899 34.0107 309.227 32.984C307.555 31.9574 306.44 30.564 305.883 28.804L309.491 26.692C309.989 27.8947 310.723 28.804 311.691 29.42C312.659 30.036 313.832 30.344 315.211 30.344C316.413 30.344 317.367 30.1094 318.071 29.64C318.775 29.1707 319.127 28.5107 319.127 27.66C319.127 26.9854 318.907 26.4427 318.467 26.032C318.027 25.592 317.484 25.2547 316.839 25.02C316.193 24.756 315.269 24.448 314.067 24.096C312.512 23.656 311.236 23.2307 310.239 22.82C309.271 22.38 308.435 21.7494 307.731 20.928C307.056 20.1067 306.719 19.036 306.719 17.716C306.719 16.2494 307.115 14.988 307.907 13.932C308.699 12.8467 309.755 12.0254 311.075 11.468C312.424 10.9107 313.891 10.632 315.475 10.632C317.616 10.632 319.435 11.1014 320.931 12.04C322.456 12.9787 323.453 14.2254 323.923 15.78L320.271 17.804C319.831 16.8654 319.185 16.132 318.335 15.604C317.513 15.076 316.516 14.812 315.343 14.812C314.257 14.812 313.377 15.032 312.703 15.472C312.057 15.912 311.735 16.528 311.735 17.32C311.735 17.9067 311.94 18.4054 312.351 18.816C312.761 19.1974 313.275 19.5054 313.891 19.74C314.536 19.9747 315.416 20.2534 316.531 20.576C318.115 20.9867 319.42 21.412 320.447 21.852C321.473 22.292 322.353 22.9667 323.087 23.876C323.82 24.756 324.187 25.9147 324.187 27.352Z" fill="#E4CA93"/>
<path d="M335.932 10.632C338.191 10.632 340.141 11.2187 341.784 12.392C343.427 13.536 344.6 15.12 345.304 17.144C346.008 19.1387 346.155 21.3387 345.744 23.744H329.948C330.065 25.2107 330.417 26.428 331.004 27.396C331.62 28.364 332.383 29.0827 333.292 29.552C334.201 30.0214 335.228 30.256 336.372 30.256C337.516 30.256 338.513 30.0214 339.364 29.552C340.244 29.0534 340.948 28.32 341.476 27.352L345.128 29.464C344.512 31.0774 343.368 32.324 341.696 33.204C340.053 34.084 338.205 34.524 336.152 34.524C334.099 34.524 332.207 34.0547 330.476 33.116C328.745 32.1774 327.367 30.8134 326.34 29.024C325.313 27.2054 324.8 25.02 324.8 22.468C324.8 20.004 325.313 17.8774 326.34 16.088C327.367 14.2987 328.716 12.9494 330.388 12.04C332.089 11.1014 333.937 10.632 335.932 10.632ZM335.8 14.812C334.832 14.812 333.952 15.0174 333.16 15.428C332.397 15.8094 331.737 16.4107 331.18 17.232C330.623 18.024 330.241 18.9774 330.036 20.092H340.86C340.801 18.9774 340.552 18.024 340.112 17.232C339.672 16.44 339.071 15.8387 338.308 15.428C337.575 15.0174 336.739 14.812 335.8 14.812Z" fill="#E4CA93"/>
<path d="M368.813 1.78803C371.159 1.78803 373.227 2.22803 375.017 3.10802C376.835 3.95869 378.243 5.16136 379.241 6.71603C380.267 8.27069 380.781 10.06 380.781 12.084C380.781 14.108 380.282 15.8974 379.285 17.452C378.287 19.0067 376.879 20.2094 375.061 21.06C373.271 21.9107 371.189 22.336 368.813 22.336H363.445V33.996H358.341V1.78803H368.813ZM368.241 17.936C370.499 17.936 372.245 17.4227 373.477 16.396C374.738 15.34 375.369 13.9027 375.369 12.084C375.369 10.2654 374.738 8.82803 373.477 7.77203C372.215 6.71602 370.47 6.18802 368.241 6.18802H363.445V17.936H368.241Z" fill="#E4CA93"/>
<path d="M390.591 10.632C393.407 10.632 395.651 11.468 397.323 13.14C399.024 14.7827 399.875 17.1294 399.875 20.18V33.996H395.695C395.607 32.6174 395.534 31.6934 395.475 31.224C394.771 32.3094 393.847 33.1307 392.703 33.688C391.588 34.2454 390.268 34.524 388.743 34.524C387.247 34.524 385.839 34.2454 384.519 33.688C383.228 33.1307 382.202 32.324 381.439 31.268C380.676 30.1827 380.295 28.892 380.295 27.396C380.295 25.3134 381.087 23.6267 382.671 22.336C384.255 21.016 386.308 20.2534 388.831 20.048C391.354 19.8427 393.964 20.2387 396.663 21.236L395.035 22.776V20.752C395.064 18.6987 394.668 17.2027 393.847 16.264C393.026 15.296 391.823 14.812 390.239 14.812C388.978 14.812 387.907 15.0907 387.027 15.648C386.147 16.176 385.428 16.9827 384.871 18.068L381.263 16C382.026 14.3574 383.228 13.052 384.871 12.084C386.514 11.116 388.42 10.632 390.591 10.632ZM389.403 30.608C390.371 30.608 391.28 30.4174 392.131 30.036C393.011 29.6254 393.715 29.0534 394.243 28.32C394.771 27.5574 395.035 26.648 395.035 25.592V24.272C393.07 23.7734 391.339 23.5827 389.843 23.7C388.376 23.788 387.247 24.1547 386.455 24.8C385.663 25.416 385.267 26.2374 385.267 27.264C385.267 28.32 385.648 29.1414 386.411 29.728C387.203 30.3147 388.2 30.608 389.403 30.608Z" fill="#E4CA93"/>
<path d="M434.71 32.984C433.361 34.0107 431.572 34.524 429.342 34.524C427.084 34.524 425.265 33.908 423.886 32.676C422.508 31.444 421.818 29.2587 421.818 26.12V15.34H418.034V11.16H421.818V4.47203H426.702V11.16H433.39V15.34H426.702V25.372C426.702 27.0734 426.996 28.2907 427.582 29.024C428.169 29.7574 429.02 30.124 430.134 30.124C430.662 30.124 431.161 30.0507 431.63 29.904C432.1 29.7574 432.569 29.5374 433.038 29.244L434.71 32.984ZM408.134 14.724C408.78 13.3454 409.572 12.3187 410.51 11.644C411.478 10.9694 412.608 10.632 413.898 10.632C414.749 10.632 415.526 10.7934 416.23 11.116V15.648C415.585 15.2374 414.793 15.032 413.854 15.032C412.71 15.032 411.728 15.3254 410.906 15.912C410.114 16.4694 409.498 17.3347 409.058 18.508C408.648 19.6814 408.442 21.1334 408.442 22.864V33.996H403.558V11.204H407.87C407.929 12.4654 408.017 13.6387 408.134 14.724Z" fill="#E4CA93"/>
<path d="M435.335 37.956C435.687 38.2494 436.083 38.4547 436.523 38.572C436.963 38.7187 437.447 38.792 437.975 38.792C438.621 38.792 439.178 38.66 439.647 38.396C440.117 38.1614 440.601 37.6774 441.099 36.944C441.598 36.2107 442.17 35.14 442.815 33.732L443.607 31.972L443.299 36.108L432.871 11.204H438.415L445.015 28.276L451.219 11.204H456.279L446.687 35.492C445.925 37.3987 445.133 38.9094 444.311 40.024C443.519 41.1387 442.61 41.9454 441.583 42.444C440.557 42.972 439.339 43.236 437.931 43.236C436.171 43.236 434.675 42.7814 433.443 41.872L435.335 37.956Z" fill="#E4CA93"/>
<path d="M10.7799 59.84L14.1999 70.96L17.3399 59.86H19.4199L14.9399 74.5H13.2599L9.83991 63.74L6.53991 74.5H4.87991L0.159912 59.86H2.41991L5.81991 70.96L8.99991 59.84H10.7799Z" fill="#E4CA93"/>
<path d="M22.6073 63.88C23.8473 63.88 24.8473 64.2467 25.6073 64.98C26.3806 65.7134 26.7673 66.7667 26.7673 68.14V74.5H24.9873C24.9606 73.9 24.9273 73.4734 24.8873 73.22C24.2473 74.22 23.2206 74.72 21.8073 74.72C21.1139 74.72 20.4739 74.5934 19.8873 74.34C19.3139 74.0867 18.8539 73.72 18.5073 73.24C18.1606 72.76 17.9873 72.18 17.9873 71.5C17.9873 70.4734 18.4073 69.66 19.2473 69.06C20.0873 68.46 21.1606 68.16 22.4673 68.16C23.2006 68.16 23.9539 68.26 24.7273 68.46V68.42C24.7273 67.4734 24.5406 66.78 24.1673 66.34C23.7939 65.8867 23.2339 65.66 22.4873 65.66C21.8873 65.66 21.3806 65.7934 20.9673 66.06C20.5673 66.3134 20.2273 66.6867 19.9473 67.18L18.4273 66.3C18.7606 65.5667 19.3006 64.98 20.0473 64.54C20.7939 64.1 21.6473 63.88 22.6073 63.88ZM24.7273 70.02C23.9273 69.82 23.2273 69.72 22.6273 69.72C21.8273 69.72 21.2073 69.8734 20.7673 70.18C20.3273 70.4867 20.1073 70.9134 20.1073 71.46C20.1073 71.9534 20.2873 72.3467 20.6473 72.64C21.0073 72.92 21.4806 73.06 22.0673 73.06C22.8006 73.06 23.4273 72.8534 23.9473 72.44C24.4673 72.0134 24.7273 71.4267 24.7273 70.68V70.02Z" fill="#E4CA93"/>
<path d="M34.6629 74.08C34.0762 74.5067 33.2962 74.72 32.3229 74.72C31.3362 74.72 30.5295 74.4467 29.9029 73.9C29.2895 73.3534 28.9829 72.38 28.9829 70.98V65.88H27.2229V64.12H28.9829V61.12H31.0229V64.12H34.0829V65.88H31.0229V70.7C31.0229 72.14 31.5562 72.86 32.6229 72.86C33.1029 72.86 33.5495 72.7334 33.9629 72.48L34.6629 74.08Z" fill="#E4CA93"/>
<path d="M39.5215 72.86C40.4548 72.86 41.2015 72.4267 41.7615 71.56L43.3415 72.48C42.9815 73.2267 42.4681 73.7867 41.8015 74.16C41.1481 74.5334 40.3948 74.72 39.5415 74.72C38.6081 74.72 37.7548 74.5 36.9815 74.06C36.2081 73.62 35.5948 72.9934 35.1415 72.18C34.6881 71.3534 34.4615 70.3934 34.4615 69.3C34.4615 68.2067 34.6881 67.2534 35.1415 66.44C35.5948 65.6134 36.2081 64.98 36.9815 64.54C37.7548 64.1 38.6081 63.88 39.5415 63.88C40.3948 63.88 41.1481 64.0667 41.8015 64.44C42.4681 64.8134 42.9815 65.3734 43.3415 66.12L41.7615 67.04C41.2015 66.1867 40.4548 65.76 39.5215 65.76C38.6548 65.76 37.9548 66.08 37.4215 66.72C36.8881 67.3467 36.6215 68.2067 36.6215 69.3C36.6215 70.4067 36.8881 71.28 37.4215 71.92C37.9548 72.5467 38.6548 72.86 39.5215 72.86Z" fill="#E4CA93"/>
<path d="M49.3033 63.88C50.41 63.88 51.2967 64.2534 51.9633 65C52.6433 65.7334 52.9833 66.7867 52.9833 68.16V74.5H50.9234V68.78C50.9234 67.82 50.7434 67.08 50.3834 66.56C50.0234 66.04 49.4767 65.78 48.7434 65.78C47.9967 65.78 47.3567 66.0467 46.8233 66.58C46.3033 67.1 46.0434 67.8467 46.0434 68.82V74.5H43.9833V59.28H46.0434V65.62C46.39 65.0467 46.8434 64.6134 47.4034 64.32C47.9767 64.0267 48.61 63.88 49.3033 63.88Z" fill="#E4CA93"/>
<path d="M63.2518 63.88C64.4918 63.88 65.4918 64.2467 66.2518 64.98C67.0251 65.7134 67.4118 66.7667 67.4118 68.14V74.5H65.6318C65.6051 73.9 65.5718 73.4734 65.5318 73.22C64.8918 74.22 63.8651 74.72 62.4518 74.72C61.7585 74.72 61.1185 74.5934 60.5318 74.34C59.9585 74.0867 59.4985 73.72 59.1518 73.24C58.8051 72.76 58.6318 72.18 58.6318 71.5C58.6318 70.4734 59.0518 69.66 59.8918 69.06C60.7318 68.46 61.8051 68.16 63.1118 68.16C63.8451 68.16 64.5985 68.26 65.3718 68.46V68.42C65.3718 67.4734 65.1851 66.78 64.8118 66.34C64.4385 65.8867 63.8785 65.66 63.1318 65.66C62.5318 65.66 62.0251 65.7934 61.6118 66.06C61.2118 66.3134 60.8718 66.6867 60.5918 67.18L59.0718 66.3C59.4051 65.5667 59.9451 64.98 60.6918 64.54C61.4385 64.1 62.2918 63.88 63.2518 63.88ZM65.3718 70.02C64.5718 69.82 63.8718 69.72 63.2718 69.72C62.4718 69.72 61.8518 69.8734 61.4118 70.18C60.9718 70.4867 60.7518 70.9134 60.7518 71.46C60.7518 71.9534 60.9318 72.3467 61.2918 72.64C61.6518 72.92 62.1251 73.06 62.7118 73.06C63.4451 73.06 64.0718 72.8534 64.5918 72.44C65.1118 72.0134 65.3718 71.4267 65.3718 70.68V70.02Z" fill="#E4CA93"/>
<path d="M71.2269 74.5H69.1669V59.28H71.2269V74.5Z" fill="#E4CA93"/>
<path d="M75.2074 74.5H73.1474V59.28H75.2074V74.5Z" fill="#E4CA93"/>
<path d="M87.6785 74.08C87.0918 74.5067 86.3118 74.72 85.3385 74.72C84.3518 74.72 83.5452 74.4467 82.9185 73.9C82.3052 73.3534 81.9985 72.38 81.9985 70.98V65.88H80.2385V64.12H81.9985V61.12H84.0385V64.12H87.0985V65.88H84.0385V70.7C84.0385 72.14 84.5718 72.86 85.6385 72.86C86.1185 72.86 86.5652 72.7334 86.9785 72.48L87.6785 74.08Z" fill="#E4CA93"/>
<path d="M93.5534 63.88C94.66 63.88 95.5467 64.2534 96.2133 65C96.8933 65.7334 97.2334 66.7867 97.2334 68.16V74.5H95.1733V68.78C95.1733 67.82 94.9933 67.08 94.6333 66.56C94.2733 66.04 93.7267 65.78 92.9933 65.78C92.2467 65.78 91.6067 66.0467 91.0733 66.58C90.5533 67.1 90.2934 67.8467 90.2934 68.82V74.5H88.2334V59.28H90.2934V65.62C90.64 65.0467 91.0934 64.6134 91.6534 64.32C92.2267 64.0267 92.86 63.88 93.5534 63.88Z" fill="#E4CA93"/>
<path d="M103.411 63.88C104.318 63.88 105.111 64.0934 105.791 64.52C106.471 64.9334 106.998 65.5067 107.371 66.24C107.744 66.96 107.931 67.7734 107.931 68.68C107.931 68.9867 107.898 69.3534 107.831 69.78H100.551C100.631 70.82 100.951 71.6067 101.511 72.14C102.071 72.66 102.771 72.92 103.611 72.92C104.704 72.92 105.498 72.4667 105.991 71.56L107.531 72.46C107.264 73.18 106.758 73.74 106.011 74.14C105.264 74.5267 104.431 74.72 103.511 74.72C102.564 74.72 101.704 74.5134 100.931 74.1C100.158 73.6734 99.5378 73.0467 99.0712 72.22C98.6178 71.3934 98.3912 70.4067 98.3912 69.26C98.3912 68.14 98.6178 67.1734 99.0712 66.36C99.5378 65.5467 100.151 64.9334 100.911 64.52C101.684 64.0934 102.518 63.88 103.411 63.88ZM103.331 65.68C102.651 65.68 102.058 65.9 101.551 66.34C101.058 66.7667 100.744 67.3934 100.611 68.22H105.771C105.718 67.42 105.471 66.8 105.031 66.36C104.591 65.9067 104.024 65.68 103.331 65.68Z" fill="#E4CA93"/>
<path d="M117.838 72.86C118.771 72.86 119.518 72.4267 120.078 71.56L121.658 72.48C121.298 73.2267 120.785 73.7867 120.118 74.16C119.465 74.5334 118.711 74.72 117.858 74.72C116.925 74.72 116.071 74.5 115.298 74.06C114.525 73.62 113.911 72.9934 113.458 72.18C113.005 71.3534 112.778 70.3934 112.778 69.3C112.778 68.2067 113.005 67.2534 113.458 66.44C113.911 65.6134 114.525 64.98 115.298 64.54C116.071 64.1 116.925 63.88 117.858 63.88C118.711 63.88 119.465 64.0667 120.118 64.44C120.785 64.8134 121.298 65.3734 121.658 66.12L120.078 67.04C119.518 66.1867 118.771 65.76 117.838 65.76C116.971 65.76 116.271 66.08 115.738 66.72C115.205 67.3467 114.938 68.2067 114.938 69.3C114.938 70.4067 115.205 71.28 115.738 71.92C116.271 72.5467 116.971 72.86 117.838 72.86Z" fill="#E4CA93"/>
<path d="M129.08 64.12H131.14V74.5H129.32C129.293 73.8334 129.246 73.2734 129.18 72.82C128.846 73.46 128.386 73.94 127.8 74.26C127.213 74.5667 126.56 74.72 125.84 74.72C124.72 74.72 123.826 74.3534 123.16 73.62C122.493 72.8867 122.16 71.8267 122.16 70.44V64.12H124.2V69.84C124.2 70.7867 124.38 71.5267 124.74 72.06C125.1 72.58 125.646 72.84 126.38 72.84C127.126 72.84 127.76 72.5734 128.28 72.04C128.813 71.5067 129.08 70.7534 129.08 69.78V64.12Z" fill="#E4CA93"/>
<path d="M139.237 74.08C138.65 74.5067 137.87 74.72 136.897 74.72C135.91 74.72 135.104 74.4467 134.477 73.9C133.864 73.3534 133.557 72.38 133.557 70.98V65.88H131.797V64.12H133.557V61.12H135.597V64.12H138.657V65.88H135.597V70.7C135.597 72.14 136.13 72.86 137.197 72.86C137.677 72.86 138.124 72.7334 138.537 72.48L139.237 74.08Z" fill="#E4CA93"/>
<path d="M144.056 63.88C144.962 63.88 145.756 64.0934 146.436 64.52C147.116 64.9334 147.642 65.5067 148.016 66.24C148.389 66.96 148.576 67.7734 148.576 68.68C148.576 68.9867 148.542 69.3534 148.476 69.78H141.196C141.276 70.82 141.596 71.6067 142.156 72.14C142.716 72.66 143.416 72.92 144.256 72.92C145.349 72.92 146.142 72.4667 146.636 71.56L148.176 72.46C147.909 73.18 147.402 73.74 146.656 74.14C145.909 74.5267 145.076 74.72 144.156 74.72C143.209 74.72 142.349 74.5134 141.576 74.1C140.802 73.6734 140.182 73.0467 139.716 72.22C139.262 71.3934 139.036 70.4067 139.036 69.26C139.036 68.14 139.262 67.1734 139.716 66.36C140.182 65.5467 140.796 64.9334 141.556 64.52C142.329 64.0934 143.162 63.88 144.056 63.88ZM143.976 65.68C143.296 65.68 142.702 65.9 142.196 66.34C141.702 66.7667 141.389 67.3934 141.256 68.22H146.416C146.362 67.42 146.116 66.8 145.676 66.36C145.236 65.9067 144.669 65.68 143.976 65.68Z" fill="#E4CA93"/>
<path d="M158.142 63.88C159.382 63.88 160.382 64.2467 161.142 64.98C161.916 65.7134 162.302 66.7667 162.302 68.14V74.5H160.522C160.496 73.9 160.462 73.4734 160.422 73.22C159.782 74.22 158.756 74.72 157.342 74.72C156.649 74.72 156.009 74.5934 155.422 74.34C154.849 74.0867 154.389 73.72 154.042 73.24C153.696 72.76 153.522 72.18 153.522 71.5C153.522 70.4734 153.942 69.66 154.782 69.06C155.622 68.46 156.696 68.16 158.002 68.16C158.736 68.16 159.489 68.26 160.262 68.46V68.42C160.262 67.4734 160.076 66.78 159.702 66.34C159.329 65.8867 158.769 65.66 158.022 65.66C157.422 65.66 156.916 65.7934 156.502 66.06C156.102 66.3134 155.762 66.6867 155.482 67.18L153.962 66.3C154.296 65.5667 154.836 64.98 155.582 64.54C156.329 64.1 157.182 63.88 158.142 63.88ZM160.262 70.02C159.462 69.82 158.762 69.72 158.162 69.72C157.362 69.72 156.742 69.8734 156.302 70.18C155.862 70.4867 155.642 70.9134 155.642 71.46C155.642 71.9534 155.822 72.3467 156.182 72.64C156.542 72.92 157.016 73.06 157.602 73.06C158.336 73.06 158.962 72.8534 159.482 72.44C160.002 72.0134 160.262 71.4267 160.262 70.68V70.02Z" fill="#E4CA93"/>
<path d="M169.378 63.88C170.498 63.88 171.391 64.2467 172.058 64.98C172.724 65.7134 173.058 66.7734 173.058 68.16V74.5H170.998V68.78C170.998 67.82 170.818 67.08 170.458 66.56C170.098 66.04 169.551 65.78 168.818 65.78C168.071 65.78 167.431 66.0467 166.898 66.58C166.378 67.1 166.118 67.8467 166.118 68.82V74.5H164.058V64.12H165.878C165.904 64.7734 165.944 65.34 165.998 65.82C166.344 65.18 166.804 64.7 167.378 64.38C167.964 64.0467 168.631 63.88 169.378 63.88Z" fill="#E4CA93"/>
<path d="M182.135 59.28H184.175V74.5H182.375C182.309 73.5934 182.262 73.0267 182.235 72.8C181.862 73.44 181.369 73.92 180.755 74.24C180.155 74.56 179.515 74.72 178.835 74.72C178.022 74.72 177.262 74.5067 176.555 74.08C175.849 73.6534 175.282 73.0334 174.855 72.22C174.429 71.3934 174.215 70.42 174.215 69.3C174.215 68.1934 174.429 67.2334 174.855 66.42C175.282 65.5934 175.849 64.9667 176.555 64.54C177.262 64.1 178.022 63.88 178.835 63.88C179.489 63.88 180.102 64.0267 180.675 64.32C181.262 64.6134 181.749 65.0467 182.135 65.62V59.28ZM179.175 72.88C179.989 72.88 180.682 72.5867 181.255 72C181.842 71.4134 182.135 70.5134 182.135 69.3C182.135 68.1 181.842 67.2134 181.255 66.64C180.682 66.0667 179.989 65.78 179.175 65.78C178.322 65.78 177.635 66.0867 177.115 66.7C176.609 67.3134 176.355 68.18 176.355 69.3C176.355 70.4334 176.609 71.3134 177.115 71.94C177.635 72.5667 178.322 72.88 179.175 72.88Z" fill="#E4CA93"/>
<path d="M194.831 60.92C194.298 60.92 193.891 61.1 193.611 61.46C193.344 61.82 193.211 62.44 193.211 63.32V64.12H195.911V65.86H193.211V74.5H191.151V65.86H189.351V64.12H191.151V63.26C191.151 61.82 191.485 60.76 192.151 60.08C192.818 59.3867 193.671 59.04 194.711 59.04C195.191 59.04 195.625 59.1067 196.011 59.24C196.398 59.3734 196.705 59.5467 196.931 59.76L196.131 61.32C195.744 61.0534 195.311 60.92 194.831 60.92Z" fill="#E4CA93"/>
<path d="M203.42 64.12H205.48V74.5H203.66C203.633 73.8334 203.586 73.2734 203.52 72.82C203.186 73.46 202.726 73.94 202.14 74.26C201.553 74.5667 200.9 74.72 200.18 74.72C199.06 74.72 198.166 74.3534 197.5 73.62C196.833 72.8867 196.5 71.8267 196.5 70.44V64.12H198.54V69.84C198.54 70.7867 198.72 71.5267 199.08 72.06C199.44 72.58 199.986 72.84 200.72 72.84C201.466 72.84 202.1 72.5734 202.62 72.04C203.153 71.5067 203.42 70.7534 203.42 69.78V64.12Z" fill="#E4CA93"/>
<path d="M212.737 63.88C213.857 63.88 214.75 64.2467 215.417 64.98C216.084 65.7134 216.417 66.7734 216.417 68.16V74.5H214.357V68.78C214.357 67.82 214.177 67.08 213.817 66.56C213.457 66.04 212.91 65.78 212.177 65.78C211.43 65.78 210.79 66.0467 210.257 66.58C209.737 67.1 209.477 67.8467 209.477 68.82V74.5H207.417V64.12H209.237C209.264 64.7734 209.304 65.34 209.357 65.82C209.704 65.18 210.164 64.7 210.737 64.38C211.324 64.0467 211.99 63.88 212.737 63.88Z" fill="#E4CA93"/>
<path d="M223.495 63.88C224.615 63.88 225.508 64.2467 226.175 64.98C226.841 65.7134 227.175 66.7734 227.175 68.16V74.5H225.115V68.78C225.115 67.82 224.935 67.08 224.575 66.56C224.215 66.04 223.668 65.78 222.935 65.78C222.188 65.78 221.548 66.0467 221.015 66.58C220.495 67.1 220.235 67.8467 220.235 68.82V74.5H218.175V64.12H219.995C220.021 64.7734 220.061 65.34 220.115 65.82C220.461 65.18 220.921 64.7 221.495 64.38C222.081 64.0467 222.748 63.88 223.495 63.88Z" fill="#E4CA93"/>
<path d="M229.953 62.44C229.606 62.44 229.306 62.3067 229.053 62.04C228.799 61.7734 228.673 61.46 228.673 61.1C228.673 60.74 228.799 60.4334 229.053 60.18C229.306 59.9134 229.606 59.78 229.953 59.78C230.326 59.78 230.639 59.9134 230.893 60.18C231.146 60.4334 231.273 60.74 231.273 61.1C231.273 61.46 231.139 61.7734 230.873 62.04C230.619 62.3067 230.313 62.44 229.953 62.44ZM230.993 74.5H228.933V64.12H230.993V74.5Z" fill="#E4CA93"/>
<path d="M237.353 63.88C238.259 63.88 239.053 64.0934 239.733 64.52C240.413 64.9334 240.939 65.5067 241.313 66.24C241.686 66.96 241.873 67.7734 241.873 68.68C241.873 68.9867 241.839 69.3534 241.773 69.78H234.493C234.573 70.82 234.893 71.6067 235.453 72.14C236.013 72.66 236.713 72.92 237.553 72.92C238.646 72.92 239.439 72.4667 239.933 71.56L241.473 72.46C241.206 73.18 240.699 73.74 239.953 74.14C239.206 74.5267 238.373 74.72 237.453 74.72C236.506 74.72 235.646 74.5134 234.873 74.1C234.099 73.6734 233.479 73.0467 233.013 72.22C232.559 71.3934 232.333 70.4067 232.333 69.26C232.333 68.14 232.559 67.1734 233.013 66.36C233.479 65.5467 234.093 64.9334 234.853 64.52C235.626 64.0934 236.459 63.88 237.353 63.88ZM237.273 65.68C236.593 65.68 235.999 65.9 235.493 66.34C234.999 66.7667 234.686 67.3934 234.553 68.22H239.713C239.659 67.42 239.413 66.8 238.973 66.36C238.533 65.9067 237.966 65.68 237.273 65.68Z" fill="#E4CA93"/>
<path d="M250.364 71.5C250.364 72.4734 249.99 73.2534 249.243 73.84C248.51 74.4267 247.55 74.72 246.364 74.72C245.31 74.72 244.41 74.4934 243.664 74.04C242.917 73.5867 242.417 72.96 242.164 72.16L243.704 71.26C243.93 71.82 244.27 72.2467 244.724 72.54C245.177 72.82 245.724 72.96 246.364 72.96C246.937 72.96 247.39 72.8467 247.724 72.62C248.07 72.38 248.243 72.0534 248.243 71.64C248.243 71.32 248.137 71.06 247.924 70.86C247.724 70.6467 247.464 70.48 247.144 70.36C246.837 70.24 246.41 70.1 245.864 69.94C245.144 69.74 244.564 69.5467 244.124 69.36C243.697 69.1734 243.324 68.9 243.004 68.54C242.697 68.1667 242.544 67.6734 242.544 67.06C242.544 66.42 242.717 65.86 243.064 65.38C243.424 64.8867 243.897 64.5134 244.484 64.26C245.084 64.0067 245.744 63.88 246.464 63.88C247.41 63.88 248.217 64.0867 248.883 64.5C249.563 64.9134 250.017 65.4734 250.243 66.18L248.704 67.06C248.504 66.62 248.204 66.28 247.804 66.04C247.417 65.8 246.95 65.68 246.404 65.68C245.884 65.68 245.464 65.7867 245.144 66C244.824 66.2 244.664 66.4934 244.664 66.88C244.664 67.1734 244.757 67.4134 244.944 67.6C245.144 67.7734 245.39 67.92 245.684 68.04C245.977 68.1467 246.39 68.2734 246.924 68.42C247.644 68.62 248.23 68.82 248.684 69.02C249.15 69.22 249.544 69.52 249.864 69.92C250.197 70.32 250.364 70.8467 250.364 71.5Z" fill="#E4CA93"/>
<path d="M252.443 72.1C252.87 72.1 253.223 72.2734 253.503 72.62C253.783 72.9534 253.923 73.46 253.923 74.14C253.923 75.1267 253.65 75.9467 253.103 76.6C252.57 77.2667 251.87 77.68 251.003 77.84V76.72C251.99 76.4534 252.523 75.8 252.603 74.76C252.577 74.7734 252.523 74.78 252.443 74.78C252.07 74.78 251.763 74.6534 251.523 74.4C251.297 74.1334 251.183 73.8134 251.183 73.44C251.183 73.0667 251.303 72.7534 251.543 72.5C251.783 72.2334 252.083 72.1 252.443 72.1Z" fill="#E4CA93"/>
<path d="M263.892 63.88C265.132 63.88 266.132 64.2467 266.892 64.98C267.666 65.7134 268.052 66.7667 268.052 68.14V74.5H266.272C266.246 73.9 266.212 73.4734 266.172 73.22C265.532 74.22 264.506 74.72 263.092 74.72C262.399 74.72 261.759 74.5934 261.172 74.34C260.599 74.0867 260.139 73.72 259.792 73.24C259.446 72.76 259.272 72.18 259.272 71.5C259.272 70.4734 259.692 69.66 260.532 69.06C261.372 68.46 262.446 68.16 263.752 68.16C264.486 68.16 265.239 68.26 266.012 68.46V68.42C266.012 67.4734 265.826 66.78 265.452 66.34C265.079 65.8867 264.519 65.66 263.772 65.66C263.172 65.66 262.666 65.7934 262.252 66.06C261.852 66.3134 261.512 66.6867 261.232 67.18L259.712 66.3C260.046 65.5667 260.586 64.98 261.332 64.54C262.079 64.1 262.932 63.88 263.892 63.88ZM266.012 70.02C265.212 69.82 264.512 69.72 263.912 69.72C263.112 69.72 262.492 69.8734 262.052 70.18C261.612 70.4867 261.392 70.9134 261.392 71.46C261.392 71.9534 261.572 72.3467 261.932 72.64C262.292 72.92 262.766 73.06 263.352 73.06C264.086 73.06 264.712 72.8534 265.232 72.44C265.752 72.0134 266.012 71.4267 266.012 70.68V70.02Z" fill="#E4CA93"/>
<path d="M275.128 63.88C276.248 63.88 277.141 64.2467 277.808 64.98C278.474 65.7134 278.808 66.7734 278.808 68.16V74.5H276.748V68.78C276.748 67.82 276.568 67.08 276.208 66.56C275.848 66.04 275.301 65.78 274.568 65.78C273.821 65.78 273.181 66.0467 272.648 66.58C272.128 67.1 271.868 67.8467 271.868 68.82V74.5H269.808V64.12H271.628C271.654 64.7734 271.694 65.34 271.748 65.82C272.094 65.18 272.554 64.7 273.128 64.38C273.714 64.0467 274.381 63.88 275.128 63.88Z" fill="#E4CA93"/>
<path d="M287.885 59.28H289.925V74.5H288.125C288.059 73.5934 288.012 73.0267 287.985 72.8C287.612 73.44 287.119 73.92 286.505 74.24C285.905 74.56 285.265 74.72 284.585 74.72C283.772 74.72 283.012 74.5067 282.305 74.08C281.599 73.6534 281.032 73.0334 280.605 72.22C280.179 71.3934 279.965 70.42 279.965 69.3C279.965 68.1934 280.179 67.2334 280.605 66.42C281.032 65.5934 281.599 64.9667 282.305 64.54C283.012 64.1 283.772 63.88 284.585 63.88C285.239 63.88 285.852 64.0267 286.425 64.32C287.012 64.6134 287.499 65.0467 287.885 65.62V59.28ZM284.925 72.88C285.739 72.88 286.432 72.5867 287.005 72C287.592 71.4134 287.885 70.5134 287.885 69.3C287.885 68.1 287.592 67.2134 287.005 66.64C286.432 66.0667 285.739 65.78 284.925 65.78C284.072 65.78 283.385 66.0867 282.865 66.7C282.359 67.3134 282.105 68.18 282.105 69.3C282.105 70.4334 282.359 71.3134 282.865 71.94C283.385 72.5667 284.072 72.88 284.925 72.88Z" fill="#E4CA93"/>
<path d="M300.981 63.88C301.328 63.88 301.648 63.9267 301.941 64.02C302.248 64.1134 302.488 64.24 302.661 64.4L301.881 66.02C301.574 65.8334 301.235 65.74 300.861 65.74C300.101 65.74 299.481 66.0534 299.001 66.68C298.534 67.3067 298.301 68.2 298.301 69.36V74.5H296.241V64.12H298.061C298.088 64.76 298.128 65.32 298.181 65.8C298.488 65.16 298.874 64.68 299.341 64.36C299.821 64.04 300.368 63.88 300.981 63.88Z" fill="#E4CA93"/>
<path d="M306.829 63.88C307.736 63.88 308.529 64.0934 309.209 64.52C309.889 64.9334 310.416 65.5067 310.789 66.24C311.162 66.96 311.349 67.7734 311.349 68.68C311.349 68.9867 311.316 69.3534 311.249 69.78H303.969C304.049 70.82 304.369 71.6067 304.929 72.14C305.489 72.66 306.189 72.92 307.029 72.92C308.122 72.92 308.916 72.4667 309.409 71.56L310.949 72.46C310.682 73.18 310.176 73.74 309.429 74.14C308.682 74.5267 307.849 74.72 306.929 74.72C305.982 74.72 305.122 74.5134 304.349 74.1C303.576 73.6734 302.956 73.0467 302.489 72.22C302.036 71.3934 301.809 70.4067 301.809 69.26C301.809 68.14 302.036 67.1734 302.489 66.36C302.956 65.5467 303.569 64.9334 304.329 64.52C305.102 64.0934 305.936 63.88 306.829 63.88ZM306.749 65.68C306.069 65.68 305.476 65.9 304.969 66.34C304.476 66.7667 304.162 67.3934 304.029 68.22H309.189C309.136 67.42 308.889 66.8 308.449 66.36C308.009 65.9067 307.442 65.68 306.749 65.68Z" fill="#E4CA93"/>
<path d="M316.525 63.88C317.765 63.88 318.765 64.2467 319.525 64.98C320.299 65.7134 320.685 66.7667 320.685 68.14V74.5H318.905C318.879 73.9 318.845 73.4734 318.805 73.22C318.165 74.22 317.139 74.72 315.725 74.72C315.032 74.72 314.392 74.5934 313.805 74.34C313.232 74.0867 312.772 73.72 312.425 73.24C312.079 72.76 311.905 72.18 311.905 71.5C311.905 70.4734 312.325 69.66 313.165 69.06C314.005 68.46 315.079 68.16 316.385 68.16C317.119 68.16 317.872 68.26 318.645 68.46V68.42C318.645 67.4734 318.459 66.78 318.085 66.34C317.712 65.8867 317.152 65.66 316.405 65.66C315.805 65.66 315.299 65.7934 314.885 66.06C314.485 66.3134 314.145 66.6867 313.865 67.18L312.345 66.3C312.679 65.5667 313.219 64.98 313.965 64.54C314.712 64.1 315.565 63.88 316.525 63.88ZM318.645 70.02C317.845 69.82 317.145 69.72 316.545 69.72C315.745 69.72 315.125 69.8734 314.685 70.18C314.245 70.4867 314.025 70.9134 314.025 71.46C314.025 71.9534 314.205 72.3467 314.565 72.64C314.925 72.92 315.399 73.06 315.985 73.06C316.719 73.06 317.345 72.8534 317.865 72.44C318.385 72.0134 318.645 71.4267 318.645 70.68V70.02Z" fill="#E4CA93"/>
<path d="M329.76 59.28H331.8V74.5H330C329.934 73.5934 329.887 73.0267 329.86 72.8C329.487 73.44 328.994 73.92 328.38 74.24C327.78 74.56 327.14 74.72 326.46 74.72C325.647 74.72 324.887 74.5067 324.18 74.08C323.474 73.6534 322.907 73.0334 322.48 72.22C322.054 71.3934 321.84 70.42 321.84 69.3C321.84 68.1934 322.054 67.2334 322.48 66.42C322.907 65.5934 323.474 64.9667 324.18 64.54C324.887 64.1 325.647 63.88 326.46 63.88C327.114 63.88 327.727 64.0267 328.3 64.32C328.887 64.6134 329.374 65.0467 329.76 65.62V59.28ZM326.8 72.88C327.614 72.88 328.307 72.5867 328.88 72C329.467 71.4134 329.76 70.5134 329.76 69.3C329.76 68.1 329.467 67.2134 328.88 66.64C328.307 66.0667 327.614 65.78 326.8 65.78C325.947 65.78 325.26 66.0867 324.74 66.7C324.234 67.3134 323.98 68.18 323.98 69.3C323.98 70.4334 324.234 71.3134 324.74 71.94C325.26 72.5667 325.947 72.88 326.8 72.88Z" fill="#E4CA93"/>
<path d="M7.61991 102.08C7.03325 102.507 6.25325 102.72 5.27991 102.72C4.29325 102.72 3.48658 102.447 2.85991 101.9C2.24658 101.353 1.93991 100.38 1.93991 98.98V93.88H0.179912V92.12H1.93991V89.12H3.97991V92.12H7.03991V93.88H3.97991V98.7C3.97991 100.14 4.51325 100.86 5.57991 100.86C6.05991 100.86 6.50658 100.733 6.91991 100.48L7.61991 102.08Z" fill="#E4CA93"/>
<path d="M13.4948 91.88C14.6014 91.88 15.4881 92.2534 16.1548 93C16.8348 93.7334 17.1748 94.7867 17.1748 96.16V102.5H15.1148V96.78C15.1148 95.82 14.9348 95.08 14.5748 94.56C14.2148 94.04 13.6681 93.78 12.9348 93.78C12.1881 93.78 11.5481 94.0467 11.0148 94.58C10.4948 95.1 10.2348 95.8467 10.2348 96.82V102.5H8.17476V87.28H10.2348V93.62C10.5814 93.0467 11.0348 92.6134 11.5948 92.32C12.1681 92.0267 12.8014 91.88 13.4948 91.88Z" fill="#E4CA93"/>
<path d="M23.3526 91.88C24.2592 91.88 25.0526 92.0934 25.7326 92.52C26.4126 92.9334 26.9392 93.5067 27.3126 94.24C27.6859 94.96 27.8726 95.7734 27.8726 96.68C27.8726 96.9867 27.8392 97.3534 27.7726 97.78H20.4926C20.5726 98.82 20.8926 99.6067 21.4526 100.14C22.0126 100.66 22.7126 100.92 23.5526 100.92C24.6459 100.92 25.4392 100.467 25.9326 99.56L27.4726 100.46C27.2059 101.18 26.6992 101.74 25.9526 102.14C25.2059 102.527 24.3726 102.72 23.4526 102.72C22.5059 102.72 21.6459 102.513 20.8726 102.1C20.0992 101.673 19.4792 101.047 19.0126 100.22C18.5592 99.3934 18.3326 98.4067 18.3326 97.26C18.3326 96.14 18.5592 95.1734 19.0126 94.36C19.4792 93.5467 20.0926 92.9334 20.8526 92.52C21.6259 92.0934 22.4592 91.88 23.3526 91.88ZM23.2726 93.68C22.5926 93.68 21.9992 93.9 21.4926 94.34C20.9992 94.7667 20.6859 95.3934 20.5526 96.22H25.7126C25.6592 95.42 25.4126 94.8 24.9726 94.36C24.5326 93.9067 23.9659 93.68 23.2726 93.68Z" fill="#E4CA93"/>
<path d="M38.6993 91.88C39.4993 91.88 40.246 92.1 40.9393 92.54C41.646 92.9667 42.2126 93.5934 42.6393 94.42C43.066 95.2334 43.2793 96.1934 43.2793 97.3C43.2793 98.42 43.066 99.3934 42.6393 100.22C42.2126 101.033 41.646 101.653 40.9393 102.08C40.246 102.507 39.4993 102.72 38.6993 102.72C38.006 102.72 37.3526 102.56 36.7393 102.24C36.126 101.92 35.6326 101.44 35.2593 100.8C35.206 101.32 35.166 101.887 35.1393 102.5H33.3193V87.28H35.3793V93.64C35.7526 93.0534 36.226 92.6134 36.7993 92.32C37.386 92.0267 38.0193 91.88 38.6993 91.88ZM38.3393 100.88C39.1793 100.88 39.8526 100.567 40.3593 99.94C40.8793 99.3 41.1393 98.42 41.1393 97.3C41.1393 96.1934 40.886 95.3334 40.3793 94.72C39.8726 94.0934 39.1926 93.78 38.3393 93.78C37.526 93.78 36.826 94.0667 36.2393 94.64C35.666 95.2134 35.3793 96.1 35.3793 97.3C35.3793 98.5134 35.666 99.4134 36.2393 100C36.826 100.587 37.526 100.88 38.3393 100.88Z" fill="#E4CA93"/>
<path d="M46.6644 102.5H44.6044V87.28H46.6644V102.5Z" fill="#E4CA93"/>
<path d="M47.9849 97.3C47.9849 96.2467 48.2182 95.3067 48.6849 94.48C49.1516 93.6534 49.7716 93.0134 50.5449 92.56C51.3316 92.1067 52.1782 91.88 53.0849 91.88C53.9782 91.88 54.8116 92.1067 55.5849 92.56C56.3582 93.0134 56.9782 93.6534 57.4449 94.48C57.9116 95.3067 58.1449 96.2467 58.1449 97.3C58.1449 98.3534 57.9116 99.2934 57.4449 100.12C56.9782 100.947 56.3582 101.587 55.5849 102.04C54.8116 102.493 53.9782 102.72 53.0849 102.72C52.1782 102.72 51.3316 102.493 50.5449 102.04C49.7716 101.587 49.1516 100.947 48.6849 100.12C48.2182 99.2934 47.9849 98.3534 47.9849 97.3ZM50.1449 97.3C50.1449 98.3934 50.4182 99.26 50.9649 99.9C51.5249 100.54 52.2249 100.86 53.0649 100.86C53.9182 100.86 54.6182 100.54 55.1649 99.9C55.7116 99.26 55.9849 98.3934 55.9849 97.3C55.9849 96.2067 55.7049 95.34 55.1449 94.7C54.5982 94.06 53.9049 93.74 53.0649 93.74C52.2249 93.74 51.5249 94.06 50.9649 94.7C50.4182 95.34 50.1449 96.2067 50.1449 97.3Z" fill="#E4CA93"/>
<path d="M68.8199 92.12V101.7C68.8199 103.74 68.3199 105.193 67.3199 106.06C66.3332 106.94 65.1466 107.38 63.7599 107.38C62.6932 107.38 61.7466 107.153 60.9199 106.7C60.1066 106.247 59.5466 105.613 59.2399 104.8L60.8599 103.86C61.3799 104.953 62.3466 105.5 63.7599 105.5C64.7332 105.5 65.4799 105.2 65.9999 104.6C66.5199 104.013 66.7799 103.013 66.7799 101.6L66.8399 100.9C66.4666 101.513 65.9866 101.973 65.3999 102.28C64.8266 102.573 64.1999 102.72 63.5199 102.72C62.7066 102.72 61.9399 102.507 61.2199 102.08C60.5132 101.64 59.9399 101.013 59.4999 100.2C59.0732 99.3734 58.8599 98.4067 58.8599 97.3C58.8599 96.18 59.0732 95.2134 59.4999 94.4C59.9399 93.5734 60.5132 92.9467 61.2199 92.52C61.9399 92.0934 62.7066 91.88 63.5199 91.88C64.1999 91.88 64.8399 92.04 65.4399 92.36C66.0399 92.68 66.5199 93.16 66.8799 93.8C66.9599 93.0267 67.0066 92.4667 67.0199 92.12H68.8199ZM63.8199 100.88C64.6332 100.88 65.3266 100.587 65.8999 100C66.4866 99.4134 66.7799 98.5134 66.7799 97.3C66.7799 96.1 66.4866 95.2134 65.8999 94.64C65.3266 94.0667 64.6332 93.78 63.8199 93.78C62.9666 93.78 62.2799 94.0867 61.7599 94.7C61.2532 95.3134 60.9999 96.18 60.9999 97.3C60.9999 98.4334 61.2532 99.3134 61.7599 99.94C62.2799 100.567 62.9666 100.88 63.8199 100.88Z" fill="#E4CA93"/>
<path d="M80.4962 91.88C81.2962 91.88 82.0428 92.1 82.7362 92.54C83.4428 92.9667 84.0095 93.5934 84.4362 94.42C84.8628 95.2334 85.0762 96.1934 85.0762 97.3C85.0762 98.42 84.8628 99.3934 84.4362 100.22C84.0095 101.033 83.4428 101.653 82.7362 102.08C82.0428 102.507 81.2962 102.72 80.4962 102.72C79.8295 102.72 79.2028 102.573 78.6162 102.28C78.0295 101.987 77.5495 101.547 77.1762 100.96V107.14H75.1162V92.12H76.9362C76.9628 92.7867 77.0028 93.3534 77.0562 93.82C77.4295 93.18 77.9162 92.7 78.5162 92.38C79.1295 92.0467 79.7895 91.88 80.4962 91.88ZM80.1362 100.84C80.9895 100.84 81.6695 100.533 82.1762 99.92C82.6828 99.2934 82.9362 98.42 82.9362 97.3C82.9362 96.1934 82.6762 95.3267 82.1562 94.7C81.6495 94.06 80.9762 93.74 80.1362 93.74C79.3228 93.74 78.6228 94.0334 78.0362 94.62C77.4628 95.2067 77.1762 96.1 77.1762 97.3C77.1762 98.5134 77.4628 99.4067 78.0362 99.98C78.6228 100.553 79.3228 100.84 80.1362 100.84Z" fill="#E4CA93"/>
<path d="M85.8013 97.3C85.8013 96.2467 86.0347 95.3067 86.5013 94.48C86.968 93.6534 87.588 93.0134 88.3613 92.56C89.148 92.1067 89.9947 91.88 90.9013 91.88C91.7947 91.88 92.628 92.1067 93.4013 92.56C94.1747 93.0134 94.7947 93.6534 95.2613 94.48C95.728 95.3067 95.9613 96.2467 95.9613 97.3C95.9613 98.3534 95.728 99.2934 95.2613 100.12C94.7947 100.947 94.1747 101.587 93.4013 102.04C92.628 102.493 91.7947 102.72 90.9013 102.72C89.9947 102.72 89.148 102.493 88.3613 102.04C87.588 101.587 86.968 100.947 86.5013 100.12C86.0347 99.2934 85.8013 98.3534 85.8013 97.3ZM87.9613 97.3C87.9613 98.3934 88.2347 99.26 88.7813 99.9C89.3413 100.54 90.0413 100.86 90.8813 100.86C91.7347 100.86 92.4346 100.54 92.9813 99.9C93.528 99.26 93.8013 98.3934 93.8013 97.3C93.8013 96.2067 93.5213 95.34 92.9613 94.7C92.4147 94.06 91.7213 93.74 90.8813 93.74C90.0413 93.74 89.3413 94.06 88.7813 94.7C88.2347 95.34 87.9613 96.2067 87.9613 97.3Z" fill="#E4CA93"/>
<path d="M104.496 99.5C104.496 100.473 104.123 101.253 103.376 101.84C102.643 102.427 101.683 102.72 100.496 102.72C99.443 102.72 98.543 102.493 97.7963 102.04C97.0497 101.587 96.5497 100.96 96.2963 100.16L97.8363 99.26C98.063 99.82 98.403 100.247 98.8563 100.54C99.3096 100.82 99.8563 100.96 100.496 100.96C101.07 100.96 101.523 100.847 101.856 100.62C102.203 100.38 102.376 100.053 102.376 99.64C102.376 99.32 102.27 99.06 102.056 98.86C101.856 98.6467 101.596 98.48 101.276 98.36C100.97 98.24 100.543 98.1 99.9963 97.94C99.2763 97.74 98.6963 97.5467 98.2563 97.36C97.8297 97.1734 97.4563 96.9 97.1363 96.54C96.8297 96.1667 96.6763 95.6734 96.6763 95.06C96.6763 94.42 96.8497 93.86 97.1963 93.38C97.5563 92.8867 98.0297 92.5134 98.6163 92.26C99.2163 92.0067 99.8763 91.88 100.596 91.88C101.543 91.88 102.35 92.0867 103.016 92.5C103.696 92.9134 104.15 93.4734 104.376 94.18L102.836 95.06C102.636 94.62 102.336 94.28 101.936 94.04C101.55 93.8 101.083 93.68 100.536 93.68C100.016 93.68 99.5963 93.7867 99.2763 94C98.9563 94.2 98.7963 94.4934 98.7963 94.88C98.7963 95.1734 98.8897 95.4134 99.0763 95.6C99.2763 95.7734 99.523 95.92 99.8163 96.04C100.11 96.1467 100.523 96.2734 101.056 96.42C101.776 96.62 102.363 96.82 102.816 97.02C103.283 97.22 103.676 97.52 103.996 97.92C104.33 98.32 104.496 98.8467 104.496 99.5Z" fill="#E4CA93"/>
<path d="M111.616 102.08C111.029 102.507 110.249 102.72 109.276 102.72C108.289 102.72 107.483 102.447 106.856 101.9C106.243 101.353 105.936 100.38 105.936 98.98V93.88H104.176V92.12H105.936V89.12H107.976V92.12H111.036V93.88H107.976V98.7C107.976 100.14 108.509 100.86 109.576 100.86C110.056 100.86 110.503 100.733 110.916 100.48L111.616 102.08Z" fill="#E4CA93"/>
<path d="M122.721 102.08C122.135 102.507 121.355 102.72 120.381 102.72C119.395 102.72 118.588 102.447 117.961 101.9C117.348 101.353 117.041 100.38 117.041 98.98V93.88H115.281V92.12H117.041V89.12H119.081V92.12H122.141V93.88H119.081V98.7C119.081 100.14 119.615 100.86 120.681 100.86C121.161 100.86 121.608 100.733 122.021 100.48L122.721 102.08Z" fill="#E4CA93"/>
<path d="M122.52 97.3C122.52 96.2467 122.753 95.3067 123.22 94.48C123.687 93.6534 124.307 93.0134 125.08 92.56C125.867 92.1067 126.713 91.88 127.62 91.88C128.513 91.88 129.347 92.1067 130.12 92.56C130.893 93.0134 131.513 93.6534 131.98 94.48C132.447 95.3067 132.68 96.2467 132.68 97.3C132.68 98.3534 132.447 99.2934 131.98 100.12C131.513 100.947 130.893 101.587 130.12 102.04C129.347 102.493 128.513 102.72 127.62 102.72C126.713 102.72 125.867 102.493 125.08 102.04C124.307 101.587 123.687 100.947 123.22 100.12C122.753 99.2934 122.52 98.3534 122.52 97.3ZM124.68 97.3C124.68 98.3934 124.953 99.26 125.5 99.9C126.06 100.54 126.76 100.86 127.6 100.86C128.453 100.86 129.153 100.54 129.7 99.9C130.247 99.26 130.52 98.3934 130.52 97.3C130.52 96.2067 130.24 95.34 129.68 94.7C129.133 94.06 128.44 93.74 127.6 93.74C126.76 93.74 126.06 94.06 125.5 94.7C124.953 95.34 124.68 96.2067 124.68 97.3Z" fill="#E4CA93"/>
<path d="M140.446 102.5H138.386V87.28H140.446V102.5Z" fill="#E4CA93"/>
<path d="M146.786 91.88C147.693 91.88 148.486 92.0934 149.166 92.52C149.846 92.9334 150.373 93.5067 150.746 94.24C151.119 94.96 151.306 95.7734 151.306 96.68C151.306 96.9867 151.273 97.3534 151.206 97.78H143.926C144.006 98.82 144.326 99.6067 144.886 100.14C145.446 100.66 146.146 100.92 146.986 100.92C148.079 100.92 148.873 100.467 149.366 99.56L150.906 100.46C150.639 101.18 150.133 101.74 149.386 102.14C148.64 102.527 147.806 102.72 146.886 102.72C145.94 102.72 145.08 102.513 144.306 102.1C143.533 101.673 142.913 101.047 142.446 100.22C141.993 99.3934 141.766 98.4067 141.766 97.26C141.766 96.14 141.993 95.1734 142.446 94.36C142.913 93.5467 143.526 92.9334 144.286 92.52C145.059 92.0934 145.893 91.88 146.786 91.88ZM146.706 93.68C146.026 93.68 145.433 93.9 144.926 94.34C144.433 94.7667 144.119 95.3934 143.986 96.22H149.146C149.093 95.42 148.846 94.8 148.406 94.36C147.966 93.9067 147.399 93.68 146.706 93.68Z" fill="#E4CA93"/>
<path d="M156.482 91.88C157.722 91.88 158.722 92.2467 159.482 92.98C160.256 93.7134 160.642 94.7667 160.642 96.14V102.5H158.862C158.836 101.9 158.802 101.473 158.762 101.22C158.122 102.22 157.096 102.72 155.682 102.72C154.989 102.72 154.349 102.593 153.762 102.34C153.189 102.087 152.729 101.72 152.382 101.24C152.036 100.76 151.862 100.18 151.862 99.5C151.862 98.4734 152.282 97.66 153.122 97.06C153.962 96.46 155.036 96.16 156.342 96.16C157.076 96.16 157.829 96.26 158.602 96.46V96.42C158.602 95.4734 158.416 94.78 158.042 94.34C157.669 93.8867 157.109 93.66 156.362 93.66C155.762 93.66 155.256 93.7934 154.842 94.06C154.442 94.3134 154.102 94.6867 153.822 95.18L152.302 94.3C152.636 93.5667 153.176 92.98 153.922 92.54C154.669 92.1 155.522 91.88 156.482 91.88ZM158.602 98.02C157.802 97.82 157.102 97.72 156.502 97.72C155.702 97.72 155.082 97.8734 154.642 98.18C154.202 98.4867 153.982 98.9134 153.982 99.46C153.982 99.9534 154.162 100.347 154.522 100.64C154.882 100.92 155.356 101.06 155.942 101.06C156.676 101.06 157.302 100.853 157.822 100.44C158.342 100.013 158.602 99.4267 158.602 98.68V98.02Z" fill="#E4CA93"/>
<path d="M167.137 91.88C167.484 91.88 167.804 91.9267 168.097 92.02C168.404 92.1134 168.644 92.24 168.817 92.4L168.037 94.02C167.731 93.8334 167.391 93.74 167.017 93.74C166.257 93.74 165.637 94.0534 165.157 94.68C164.691 95.3067 164.457 96.2 164.457 97.36V102.5H162.397V92.12H164.217C164.244 92.76 164.284 93.32 164.337 93.8C164.644 93.16 165.031 92.68 165.497 92.36C165.977 92.04 166.524 91.88 167.137 91.88Z" fill="#E4CA93"/>
<path d="M174.549 91.88C175.669 91.88 176.563 92.2467 177.229 92.98C177.896 93.7134 178.229 94.7734 178.229 96.16V102.5H176.169V96.78C176.169 95.82 175.989 95.08 175.629 94.56C175.269 94.04 174.723 93.78 173.989 93.78C173.243 93.78 172.603 94.0467 172.069 94.58C171.549 95.1 171.289 95.8467 171.289 96.82V102.5H169.229V92.12H171.049C171.076 92.7734 171.116 93.34 171.169 93.82C171.516 93.18 171.976 92.7 172.549 92.38C173.136 92.0467 173.803 91.88 174.549 91.88Z" fill="#E4CA93"/>
<path d="M195.478 91.88C196.465 91.88 197.265 92.2467 197.878 92.98C198.505 93.7 198.818 94.74 198.818 96.1V102.5H196.818V96.78C196.818 95.8334 196.658 95.1 196.338 94.58C196.018 94.0467 195.538 93.78 194.898 93.78C194.245 93.78 193.698 94.0467 193.258 94.58C192.831 95.1 192.618 95.8467 192.618 96.82V102.5H190.598V96.78C190.598 95.82 190.438 95.08 190.118 94.56C189.811 94.04 189.338 93.78 188.698 93.78C188.045 93.78 187.498 94.0467 187.058 94.58C186.631 95.1134 186.418 95.86 186.418 96.82V102.5H184.378V92.12H186.178C186.191 92.5467 186.225 93.0667 186.278 93.68C186.625 93.08 187.058 92.6334 187.578 92.34C188.098 92.0334 188.671 91.88 189.298 91.88C189.991 91.88 190.598 92.0667 191.118 92.44C191.651 92.8 192.045 93.3334 192.298 94.04C192.631 93.32 193.071 92.78 193.618 92.42C194.178 92.06 194.798 91.88 195.478 91.88Z" fill="#E4CA93"/>
<path d="M199.985 97.3C199.985 96.2467 200.218 95.3067 200.685 94.48C201.152 93.6534 201.772 93.0134 202.545 92.56C203.332 92.1067 204.178 91.88 205.085 91.88C205.978 91.88 206.812 92.1067 207.585 92.56C208.358 93.0134 208.978 93.6534 209.445 94.48C209.912 95.3067 210.145 96.2467 210.145 97.3C210.145 98.3534 209.912 99.2934 209.445 100.12C208.978 100.947 208.358 101.587 207.585 102.04C206.812 102.493 205.978 102.72 205.085 102.72C204.178 102.72 203.332 102.493 202.545 102.04C201.772 101.587 201.152 100.947 200.685 100.12C200.218 99.2934 199.985 98.3534 199.985 97.3ZM202.145 97.3C202.145 98.3934 202.418 99.26 202.965 99.9C203.525 100.54 204.225 100.86 205.065 100.86C205.918 100.86 206.618 100.54 207.165 99.9C207.712 99.26 207.985 98.3934 207.985 97.3C207.985 96.2067 207.705 95.34 207.145 94.7C206.598 94.06 205.905 93.74 205.065 93.74C204.225 93.74 203.525 94.06 202.965 94.7C202.418 95.34 202.145 96.2067 202.145 97.3Z" fill="#E4CA93"/>
<path d="M216.2 91.88C216.547 91.88 216.867 91.9267 217.16 92.02C217.467 92.1134 217.707 92.24 217.88 92.4L217.1 94.02C216.793 93.8334 216.453 93.74 216.08 93.74C215.32 93.74 214.7 94.0534 214.22 94.68C213.753 95.3067 213.52 96.2 213.52 97.36V102.5H211.46V92.12H213.28C213.307 92.76 213.347 93.32 213.4 93.8C213.707 93.16 214.093 92.68 214.56 92.36C215.04 92.04 215.587 91.88 216.2 91.88Z" fill="#E4CA93"/>
<path d="M222.048 91.88C222.955 91.88 223.748 92.0934 224.428 92.52C225.108 92.9334 225.635 93.5067 226.008 94.24C226.381 94.96 226.568 95.7734 226.568 96.68C226.568 96.9867 226.535 97.3534 226.468 97.78H219.188C219.268 98.82 219.588 99.6067 220.148 100.14C220.708 100.66 221.408 100.92 222.248 100.92C223.341 100.92 224.135 100.467 224.628 99.56L226.168 100.46C225.901 101.18 225.395 101.74 224.648 102.14C223.901 102.527 223.068 102.72 222.148 102.72C221.201 102.72 220.341 102.513 219.568 102.1C218.795 101.673 218.175 101.047 217.708 100.22C217.255 99.3934 217.028 98.4067 217.028 97.26C217.028 96.14 217.255 95.1734 217.708 94.36C218.175 93.5467 218.788 92.9334 219.548 92.52C220.321 92.0934 221.155 91.88 222.048 91.88ZM221.968 93.68C221.288 93.68 220.695 93.9 220.188 94.34C219.695 94.7667 219.381 95.3934 219.248 96.22H224.408C224.355 95.42 224.108 94.8 223.668 94.36C223.228 93.9067 222.661 93.68 221.968 93.68Z" fill="#E4CA93"/>
<path d="M228.505 102.74C228.145 102.74 227.839 102.607 227.585 102.34C227.345 102.073 227.225 101.76 227.225 101.4C227.225 101.027 227.345 100.713 227.585 100.46C227.839 100.193 228.145 100.06 228.505 100.06C228.879 100.06 229.192 100.193 229.445 100.46C229.699 100.713 229.825 101.027 229.825 101.4C229.825 101.76 229.692 102.073 229.425 102.34C229.172 102.607 228.865 102.74 228.505 102.74Z" fill="#E4CA93"/>
</svg>
